JapaSansOriya-CondensedExtraBlack.ufo
<glyph name="dollar" format="2">
  <advance width="495"/>
  <unicode hex="0024"/>
  <outline>
    <contour>
      <point x="217" y="33" type="curve"/>
      <point x="217" y="-58" type="line"/>
      <point x="288" y="-58" type="line"/>
      <point x="288" y="37" type="line"/>
      <point x="392" y="58"/>
      <point x="451" y="134"/>
      <point x="451" y="233" type="curve" smooth="yes"/>
      <point x="451" y="331"/>
      <point x="401" y="379"/>
      <point x="288" y="422" type="curve"/>
      <point x="288" y="564" type="line"/>
      <point x="324" y="559"/>
      <point x="367" y="546"/>
      <point x="404" y="524" type="curve"/>
      <point x="438" y="645" type="line"/>
      <point x="389" y="672"/>
      <point x="336" y="688"/>
      <point x="288" y="692" type="curve"/>
      <point x="288" y="759" type="line"/>
      <point x="217" y="759" type="line"/>
      <point x="217" y="691" type="line"/>
      <point x="116" y="677"/>
      <point x="45" y="619"/>
      <point x="45" y="510" type="curve" smooth="yes"/>
      <point x="45" y="412"/>
      <point x="104" y="355"/>
      <point x="217" y="310" type="curve"/>
      <point x="217" y="155" type="line"/>
      <point x="164" y="157"/>
      <point x="99" y="187"/>
      <point x="51" y="220" type="curve"/>
      <point x="51" y="76" type="line"/>
      <point x="102" y="52"/>
      <point x="164" y="37"/>
    </contour>
    <contour>
      <point x="288" y="165" type="curve"/>
      <point x="288" y="278" type="line"/>
      <point x="311" y="264"/>
      <point x="325" y="248"/>
      <point x="325" y="223" type="curve" smooth="yes"/>
      <point x="325" y="196"/>
      <point x="316" y="176"/>
    </contour>
    <contour>
      <point x="217" y="563" type="curve"/>
      <point x="217" y="452" type="line"/>
      <point x="187" y="468"/>
      <point x="175" y="485"/>
      <point x="175" y="507" type="curve" smooth="yes"/>
      <point x="175" y="535"/>
      <point x="184" y="555"/>
    </contour>
  </outline>
</glyph>
<glyph name="z" format="2">
  <advance width="397"/>
  <unicode hex="007A"/>
  <anchor x="198" y="0" name="bottom"/>
  <anchor x="204" y="553" name="top"/>
  <anchor x="373" y="553" name="topright"/>
  <outline>
    <contour>
      <point x="380" y="0" type="line"/>
      <point x="380" y="135" type="line"/>
      <point x="205" y="135" type="line"/>
      <point x="372" y="446" type="line"/>
      <point x="372" y="553" type="line"/>
      <point x="26" y="553" type="line"/>
      <point x="26" y="418" type="line"/>
      <point x="191" y="418" type="line"/>
      <point x="16" y="98" type="line"/>
      <point x="16" y="0" type="line"/>
    </contour>
  </outline>
</glyph>
<glyph name="macron" format="2">
  <advance width="495"/>
  <unicode hex="00AF"/>
  <outline>
    <contour>
      <point x="497" y="760" type="line"/>
      <point x="497" y="880" type="line"/>
      <point x="-2" y="880" type="line"/>
      <point x="-2" y="760" type="line"/>
    </contour>
  </outline>
</glyph>
<glyph name="plusminus" format="2">
  <advance width="500"/>
  <unicode hex="00B1"/>
  <outline>
    <component base="plus.latn" yOffset="60"/>
    <contour>
      <point x="34" y="0" type="line"/>
      <point x="466" y="0" type="line"/>
      <point x="466" y="131" type="line"/>
      <point x="34" y="131" type="line"/>
    </contour>
  </outline>
</glyph>
<glyph name="acute" format="2">
  <advance width="340"/>
  <unicode hex="00B4"/>
  <outline>
    <contour>
      <point x="300" y="756" type="curve"/>
      <point x="300" y="766" type="line"/>
      <point x="118" y="766" type="line"/>
      <point x="97" y="722"/>
      <point x="72" y="673"/>
      <point x="40" y="620" type="curve"/>
      <point x="40" y="606" type="line"/>
      <point x="159" y="606" type="line"/>
      <point x="209" y="653"/>
      <point x="272" y="722"/>
    </contour>
  </outline>
</glyph>
<glyph name="dotlessi" format="2">
  <advance width="265"/>
  <unicode hex="0131"/>
  <anchor x="134" y="0" name="bottom"/>
  <anchor x="132" y="553" name="top"/>
  <outline>
    <contour>
      <point x="213" y="0" type="line"/>
      <point x="213" y="553" type="line"/>
      <point x="51" y="553" type="line"/>
      <point x="51" y="0" type="line"/>
    </contour>
  </outline>
</glyph>
<glyph name="macronmod" format="2">
  <advance width="377"/>
  <unicode hex="02C9"/>
  <outline>
    <contour>
      <point x="337" y="736" type="line"/>
      <point x="40" y="736" type="line"/>
      <point x="40" y="621" type="line"/>
      <point x="337" y="621" type="line"/>
    </contour>
  </outline>
</glyph>
<glyph name="colontriangularmod" format="2">
  <advance width="241"/>
  <unicode hex="02D0"/>
  <outline>
    <contour>
      <point x="120" y="414" type="line"/>
      <point x="192" y="553" type="line"/>
      <point x="49" y="553" type="line"/>
    </contour>
    <contour>
      <point x="49" y="0" type="line"/>
      <point x="192" y="0" type="line"/>
      <point x="120" y="139" type="line"/>
    </contour>
  </outline>
</glyph>
<glyph name="hungarumlaut" format="2">
  <advance width="473"/>
  <unicode hex="02DD"/>
  <outline>
    <contour>
      <point x="433" y="756" type="curve"/>
      <point x="433" y="766" type="line"/>
      <point x="287" y="766" type="line"/>
      <point x="277" y="741"/>
      <point x="253" y="692"/>
      <point x="217" y="620" type="curve"/>
      <point x="217" y="606" type="line"/>
      <point x="300" y="606" type="line"/>
      <point x="346" y="647"/>
      <point x="417" y="718"/>
    </contour>
    <contour>
      <point x="255" y="756" type="curve"/>
      <point x="255" y="766" type="line"/>
      <point x="110" y="766" type="line"/>
      <point x="99" y="742"/>
      <point x="76" y="693"/>
      <point x="40" y="620" type="curve"/>
      <point x="40" y="606" type="line"/>
      <point x="116" y="606" type="line"/>
      <point x="173" y="651"/>
      <point x="237" y="716"/>
    </contour>
  </outline>
</glyph>
<glyph name="dotabovecomb" format="2">
  <unicode hex="0307"/>
  <anchor x="0" y="658" name="_top"/>
  <outline>
    <contour>
      <point x="0" y="711" type="curve"/>
      <point x="0" y="711" type="line"/>
      <point x="31" y="711"/>
      <point x="52" y="736"/>
      <point x="52" y="774" type="curve"/>
      <point x="52" y="812"/>
      <point x="31" y="837"/>
      <point x="0" y="837" type="curve"/>
      <point x="-31" y="837"/>
      <point x="-52" y="812"/>
      <point x="-52" y="774" type="curve"/>
      <point x="-52" y="736"/>
      <point x="-31" y="711"/>
    </contour>
  </outline>
</glyph>
<glyph name="Omega" format="2">
  <advance width="623"/>
  <unicode hex="03A9"/>
  <anchor x="312" y="0" name="bottom"/>
  <anchor x="312" y="714" name="top"/>
  <anchor x="20" y="714" name="topleft"/>
  <outline>
    <contour>
      <point x="312" y="579" type="curve" smooth="yes"/>
      <point x="379" y="579"/>
      <point x="412" y="520"/>
      <point x="412" y="398" type="curve" smooth="yes"/>
      <point x="412" y="283"/>
      <point x="393" y="209"/>
      <point x="341" y="167" type="curve"/>
      <point x="341" y="0" type="line"/>
      <point x="604" y="0" type="line"/>
      <point x="604" y="146" type="line"/>
      <point x="461" y="146" type="line"/>
      <point x="540" y="198"/>
      <point x="583" y="292"/>
      <point x="583" y="423" type="curve" smooth="yes"/>
      <point x="583" y="622"/>
      <point x="471" y="725"/>
      <point x="312" y="725" type="curve" smooth="yes"/>
      <point x="140" y="725"/>
      <point x="39" y="618"/>
      <point x="39" y="422" type="curve" smooth="yes"/>
      <point x="39" y="292"/>
      <point x="84" y="193"/>
      <point x="158" y="146" type="curve"/>
      <point x="19" y="146" type="line"/>
      <point x="19" y="0" type="line"/>
      <point x="280" y="0" type="line"/>
      <point x="280" y="167" type="line"/>
      <point x="231" y="207"/>
      <point x="211" y="280"/>
      <point x="211" y="396" type="curve" smooth="yes"/>
      <point x="211" y="518"/>
      <point x="242" y="579"/>
    </contour>
  </outline>
</glyph>
<glyph name="e-oriya" format="2">
  <advance width="589"/>
  <unicode hex="0B0F"/>
  <note>
eorya
</note>
  <anchor x="268" y="658" name="top"/>
  <anchor x="482" y="658" name="topright"/>
  <outline>
    <contour>
      <point x="252" y="490" type="curve"/>
      <point x="252" y="490" type="line"/>
      <point x="323" y="424" type="line"/>
      <point x="323" y="490"/>
      <point x="363" y="518"/>
      <point x="440" y="518" type="curve"/>
      <point x="408" y="571" type="line"/>
      <point x="408" y="115" type="line"/>
      <point x="457" y="124" type="line"/>
      <point x="338" y="212"/>
      <point x="215" y="352"/>
      <point x="99" y="500" type="curve"/>
      <point x="-20" y="396" type="line"/>
      <point x="102" y="249"/>
      <point x="233" y="107"/>
      <point x="380" y="0" type="curve"/>
      <point x="555" y="0" type="line"/>
      <point x="555" y="658" type="line"/>
      <point x="490" y="658" type="line" smooth="yes"/>
      <point x="299" y="658"/>
      <point x="216" y="534"/>
      <point x="216" y="436" type="curve"/>
      <point x="216" y="363"/>
      <point x="263" y="325"/>
      <point x="310" y="325" type="curve"/>
      <point x="362" y="325"/>
      <point x="389" y="370"/>
      <point x="389" y="415" type="curve"/>
      <point x="389" y="461"/>
      <point x="361" y="508"/>
      <point x="304" y="508" type="curve"/>
      <point x="286" y="508"/>
      <point x="268" y="502"/>
    </contour>
  </outline>
</glyph>
<glyph name="ja-oriya" format="2">
  <advance width="688"/>
  <unicode hex="0B1C"/>
  <note>
jaorya
</note>
  <anchor x="386" y="0" name="bottom"/>
  <anchor x="533" y="0" name="bottom_ra"/>
  <anchor x="344" y="-157" name="nukta"/>
  <anchor x="337" y="658" name="top"/>
  <anchor x="542" y="658" name="topright"/>
  <outline>
    <contour>
      <point x="278" y="-7" type="curve"/>
      <point x="278" y="-7" type="line"/>
      <point x="307" y="-7"/>
      <point x="339" y="-2"/>
      <point x="373" y="7" type="curve"/>
      <point x="365" y="53"/>
      <point x="359" y="136"/>
      <point x="359" y="186" type="curve"/>
      <point x="359" y="231"/>
      <point x="364" y="242"/>
      <point x="375" y="242" type="curve"/>
      <point x="386" y="242"/>
      <point x="386" y="228"/>
      <point x="386" y="208" type="curve"/>
      <point x="386" y="0" type="line"/>
      <point x="533" y="0" type="line"/>
      <point x="533" y="229" type="line" smooth="yes"/>
      <point x="533" y="322"/>
      <point x="478" y="371"/>
      <point x="392" y="371" type="curve"/>
      <point x="286" y="371"/>
      <point x="240" y="297"/>
      <point x="240" y="187" type="curve"/>
      <point x="240" y="155"/>
      <point x="245" y="116"/>
      <point x="253" y="60" type="curve"/>
      <point x="297" y="127" type="line"/>
      <point x="291" y="124"/>
      <point x="277" y="120"/>
      <point x="265" y="120" type="curve"/>
      <point x="230" y="120"/>
      <point x="213" y="153"/>
      <point x="213" y="196" type="curve"/>
      <point x="213" y="254"/>
      <point x="244" y="331"/>
      <point x="300" y="368" type="curve"/>
      <point x="244" y="443" type="line"/>
      <point x="129" y="385"/>
      <point x="86" y="296"/>
      <point x="86" y="197" type="curve"/>
      <point x="86" y="63"/>
      <point x="164" y="-7"/>
    </contour>
    <contour>
      <point x="140" y="179" type="curve"/>
      <point x="140" y="179" type="line"/>
      <point x="199" y="284" type="line"/>
      <point x="174" y="315"/>
      <point x="163" y="347"/>
      <point x="163" y="380" type="curve"/>
      <point x="163" y="471"/>
      <point x="250" y="520"/>
      <point x="340" y="520" type="curve"/>
      <point x="430" y="520"/>
      <point x="520" y="470"/>
      <point x="520" y="375" type="curve"/>
      <point x="520" y="360"/>
      <point x="518" y="346"/>
      <point x="514" y="331" type="curve"/>
      <point x="658" y="284" type="line"/>
      <point x="667" y="314"/>
      <point x="672" y="343"/>
      <point x="672" y="377" type="curve"/>
      <point x="672" y="569"/>
      <point x="503" y="666"/>
      <point x="337" y="666" type="curve"/>
      <point x="175" y="666"/>
      <point x="16" y="573"/>
      <point x="16" y="400" type="curve"/>
      <point x="16" y="316"/>
      <point x="54" y="240"/>
    </contour>
  </outline>
</glyph>
<glyph name="overline-oriya" format="2">
  <unicode hex="0B55"/>
  <anchor x="-1" y="658" name="_top"/>
  <outline>
    <contour>
      <point x="148" y="841" type="line"/>
      <point x="-149" y="841" type="line"/>
      <point x="-149" y="726" type="line"/>
      <point x="148" y="726" type="line"/>
    </contour>
  </outline>
</glyph>
<glyph name="aiLength-oriya" format="2">
  <unicode hex="0B56"/>
  <note>
ailengthmarkorya
</note>
  <guideline x="1190" y="527" angle="90"/>
  <guideline x="298" y="929" angle="0"/>
  <guideline x="298" y="941" angle="0"/>
  <anchor x="477" y="658" name="_topright"/>
  <outline>
    <contour>
      <point x="435" y="725" type="curve"/>
      <point x="435" y="725" type="line"/>
      <point x="572" y="699" type="line"/>
      <point x="589" y="731"/>
      <point x="597" y="763"/>
      <point x="597" y="793" type="curve"/>
      <point x="597" y="874"/>
      <point x="547" y="941"/>
      <point x="452" y="941" type="curve"/>
      <point x="370" y="941"/>
      <point x="268" y="890"/>
      <point x="217" y="890" type="curve"/>
      <point x="191" y="890"/>
      <point x="171" y="903"/>
      <point x="153" y="932" type="curve"/>
      <point x="37" y="845" type="line"/>
      <point x="80" y="757"/>
      <point x="135" y="744"/>
      <point x="185" y="744" type="curve"/>
      <point x="284" y="744"/>
      <point x="355" y="795"/>
      <point x="406" y="795" type="curve"/>
      <point x="436" y="795"/>
      <point x="445" y="778"/>
      <point x="445" y="760" type="curve"/>
      <point x="445" y="749"/>
      <point x="441" y="737"/>
    </contour>
  </outline>
</glyph>
<glyph name="isshar-oriya" format="2">
  <advance width="622"/>
  <unicode hex="0B70"/>
  <note>
issharorya
</note>
  <outline>
    <contour>
      <point x="595" y="679" type="curve"/>
      <point x="443" y="696" type="line"/>
      <point x="408" y="378"/>
      <point x="353" y="249"/>
      <point x="280" y="249" type="curve"/>
      <point x="219" y="249"/>
      <point x="184" y="343"/>
      <point x="179" y="477" type="curve"/>
      <point x="28" y="455" type="line"/>
      <point x="33" y="291"/>
      <point x="102" y="103"/>
      <point x="284" y="103" type="curve"/>
      <point x="444" y="103"/>
      <point x="556" y="248"/>
    </contour>
    <contour>
      <point x="292" y="460" type="curve"/>
      <point x="292" y="460" type="line"/>
      <point x="336" y="460"/>
      <point x="365" y="495"/>
      <point x="365" y="548" type="curve"/>
      <point x="365" y="600"/>
      <point x="336" y="636"/>
      <point x="292" y="636" type="curve"/>
      <point x="248" y="636"/>
      <point x="220" y="600"/>
      <point x="220" y="548" type="curve"/>
      <point x="220" y="495"/>
      <point x="248" y="460"/>
    </contour>
  </outline>
</glyph>
<glyph name="fraction" format="2">
  <advance width="82"/>
  <unicode hex="2044"/>
  <outline>
    <contour>
      <point x="277" y="714" type="line"/>
      <point x="150" y="714" type="line"/>
      <point x="-195" y="0" type="line"/>
      <point x="-68" y="0" type="line"/>
    </contour>
  </outline>
</glyph>
<glyph name="halfbracketlefttop" format="2">
  <advance width="303"/>
  <unicode hex="2E22"/>
  <outline>
    <contour>
      <point x="191" y="283" type="line"/>
      <point x="191" y="610" type="line"/>
      <point x="286" y="610" type="line"/>
      <point x="286" y="734" type="line"/>
      <point x="41" y="734" type="line"/>
      <point x="41" y="283" type="line"/>
    </contour>
  </outline>
</glyph>
<glyph name="halfbracketrightbottom" format="2">
  <advance width="303"/>
  <unicode hex="2E25"/>
  <outline>
    <contour>
      <point x="112" y="285" type="line"/>
      <point x="112" y="-42" type="line"/>
      <point x="17" y="-42" type="line"/>
      <point x="17" y="-166" type="line"/>
      <point x="262" y="-166" type="line"/>
      <point x="262" y="285" type="line"/>
    </contour>
  </outline>
</glyph>
<glyph name="saltillo" format="2">
  <advance width="269"/>
  <unicode hex="A78C"/>
  <outline>
    <contour>
      <point x="65" y="379" type="line"/>
      <point x="205" y="379" type="line"/>
      <point x="228" y="714" type="line"/>
      <point x="41" y="714" type="line"/>
    </contour>
  </outline>
</glyph>
<glyph name="_part.da.below" format="2">
  <advance width="502"/>
  <anchor x="148" y="56" name="curve"/>
  <anchor x="297" y="50" name="vertical"/>
  <outline>
    <contour>
      <point x="243" y="-207" type="curve"/>
      <point x="243" y="-207" type="line"/>
      <point x="288" y="-207"/>
      <point x="329" y="-188"/>
      <point x="360" y="-146" type="curve"/>
      <point x="313" y="-68" type="line"/>
      <point x="304" y="-95"/>
      <point x="286" y="-110"/>
      <point x="268" y="-110" type="curve"/>
      <point x="245" y="-110"/>
      <point x="234" y="-90"/>
      <point x="234" y="-61" type="curve"/>
      <point x="234" y="-35"/>
      <point x="241" y="-1"/>
      <point x="254" y="33" type="curve"/>
      <point x="148" y="56" type="line"/>
      <point x="128" y="19"/>
      <point x="118" y="-23"/>
      <point x="118" y="-61" type="curve"/>
      <point x="118" y="-140"/>
      <point x="160" y="-207"/>
    </contour>
    <contour>
      <point x="304" y="-151" type="line"/>
      <point x="297" y="-244" type="line"/>
      <point x="444" y="-244" type="line"/>
      <point x="444" y="50" type="line"/>
      <point x="297" y="50" type="line"/>
      <point x="297" y="-142" type="line"/>
    </contour>
  </outline>
</glyph>
<glyph name="_part.ra.below" format="2">
  <advance width="502"/>
  <anchor x="480" y="0" name="_bottom_ra"/>
  <anchor x="90" y="-70" name="horizontal"/>
  <anchor x="333" y="-70" name="stem"/>
  <anchor x="333" y="20" name="vertical"/>
  <outline>
    <contour>
      <point x="90" y="-200" type="line"/>
      <point x="480" y="-200" type="line"/>
      <point x="480" y="20" type="line"/>
      <point x="333" y="20" type="line"/>
      <point x="333" y="-70" type="line"/>
      <point x="90" y="-70" type="line"/>
    </contour>
  </outline>
</glyph>
<glyph name="aiLength-oriya.stem" format="2">
  <note>
ailengthmarkorya
</note>
  <guideline x="298" y="941" angle="0"/>
  <anchor x="392" y="658" name="_topright"/>
  <outline>
    <contour>
      <point x="318" y="658" type="curve"/>
      <point x="318" y="658" type="line"/>
      <point x="442" y="617" type="line"/>
      <point x="516" y="656"/>
      <point x="548" y="731"/>
      <point x="548" y="792" type="curve"/>
      <point x="548" y="871"/>
      <point x="495" y="941"/>
      <point x="402" y="941" type="curve"/>
      <point x="322" y="941"/>
      <point x="219" y="890"/>
      <point x="168" y="890" type="curve"/>
      <point x="142" y="890"/>
      <point x="122" y="903"/>
      <point x="104" y="932" type="curve"/>
      <point x="-12" y="845" type="line"/>
      <point x="31" y="757"/>
      <point x="86" y="744"/>
      <point x="136" y="744" type="curve"/>
      <point x="235" y="744"/>
      <point x="308" y="795"/>
      <point x="356" y="795" type="curve"/>
      <point x="379" y="795"/>
      <point x="396" y="783"/>
      <point x="396" y="756" type="curve"/>
      <point x="396" y="724"/>
      <point x="372" y="696"/>
    </contour>
  </outline>
</glyph>
<glyph name="aiLength-oriya.umbrella" format="2">
  <note>
ailengthmarkorya
</note>
  <guideline x="1190" y="527" angle="90"/>
  <guideline x="298" y="941" angle="0"/>
  <anchor x="483" y="658" name="_topright"/>
  <outline>
    <contour>
      <point x="329" y="626" type="curve"/>
      <point x="329" y="626" type="line"/>
      <point x="462" y="574" type="line"/>
      <point x="568" y="645"/>
      <point x="597" y="735"/>
      <point x="597" y="792" type="curve"/>
      <point x="597" y="863"/>
      <point x="550" y="941"/>
      <point x="451" y="941" type="curve"/>
      <point x="371" y="941"/>
      <point x="268" y="890"/>
      <point x="217" y="890" type="curve"/>
      <point x="191" y="890"/>
      <point x="171" y="903"/>
      <point x="153" y="932" type="curve"/>
      <point x="37" y="845" type="line"/>
      <point x="80" y="757"/>
      <point x="135" y="744"/>
      <point x="185" y="744" type="curve"/>
      <point x="284" y="744"/>
      <point x="355" y="795"/>
      <point x="406" y="795" type="curve"/>
      <point x="436" y="795"/>
      <point x="445" y="778"/>
      <point x="445" y="760" type="curve"/>
      <point x="445" y="716"/>
      <point x="388" y="667"/>
    </contour>
  </outline>
</glyph>
<glyph name="ba-oriya.below" format="2">
  <note>
basubscriptorya
</note>
  <guideline x="172" y="155" angle="90"/>
  <anchor x="192" y="110" name="_bottom"/>
  <anchor x="181" y="-364" name="nukta"/>
  <outline>
    <contour>
      <point x="79" y="-137" type="curve"/>
      <point x="79" y="-137" type="line"/>
      <point x="128" y="-86" type="line"/>
      <point x="113" y="-72"/>
      <point x="106" y="-56"/>
      <point x="106" y="-39" type="curve"/>
      <point x="106" y="0"/>
      <point x="132" y="26"/>
      <point x="171" y="26" type="curve"/>
      <point x="211" y="26"/>
      <point x="237" y="-1"/>
      <point x="237" y="-42" type="curve"/>
      <point x="237" y="-47"/>
      <point x="236" y="-52"/>
      <point x="235" y="-58" type="curve"/>
      <point x="328" y="-85" type="line"/>
      <point x="333" y="-70"/>
      <point x="337" y="-52"/>
      <point x="337" y="-33" type="curve"/>
      <point x="337" y="56"/>
      <point x="270" y="116"/>
      <point x="169" y="116" type="curve"/>
      <point x="71" y="116"/>
      <point x="6" y="60"/>
      <point x="6" y="-24" type="curve"/>
      <point x="6" y="-71"/>
      <point x="28" y="-111"/>
    </contour>
    <contour>
      <point x="153" y="-220" type="curve"/>
      <point x="153" y="-220" type="line"/>
      <point x="214" y="-220"/>
      <point x="250" y="-181"/>
      <point x="250" y="-128" type="curve"/>
      <point x="250" y="-73"/>
      <point x="214" y="-34"/>
      <point x="153" y="-34" type="curve"/>
      <point x="93" y="-34"/>
      <point x="56" y="-72"/>
      <point x="56" y="-127" type="curve"/>
      <point x="56" y="-181"/>
      <point x="92" y="-220"/>
    </contour>
    <contour>
      <point x="153" y="-147" type="curve"/>
      <point x="153" y="-147" type="line"/>
      <point x="143" y="-147"/>
      <point x="138" y="-138"/>
      <point x="138" y="-127" type="curve"/>
      <point x="138" y="-115"/>
      <point x="143" y="-106"/>
      <point x="153" y="-106" type="curve"/>
      <point x="163" y="-106"/>
      <point x="168" y="-115"/>
      <point x="168" y="-127" type="curve"/>
      <point x="168" y="-138"/>
      <point x="163" y="-147"/>
    </contour>
    <contour>
      <point x="154" y="-205" type="line"/>
      <point x="150" y="-244" type="line"/>
      <point x="250" y="-244" type="line"/>
      <point x="250" y="-128" type="line"/>
    </contour>
  </outline>
</glyph>
<glyph name="baja-oriya" format="2">
  <advance width="603"/>
  <guideline x="109" y="142" angle="90"/>
  <guideline x="428" y="177" angle="90"/>
  <guideline x="488" y="173" angle="90"/>
  <anchor x="300" y="658" name="top"/>
  <anchor x="457" y="658" name="topright"/>
  <outline>
    <contour>
      <point x="273" y="-248" type="curve"/>
      <point x="273" y="-248" type="line"/>
      <point x="302" y="-248"/>
      <point x="336" y="-243"/>
      <point x="366" y="-236" type="curve"/>
      <point x="359" y="-201"/>
      <point x="352" y="-150"/>
      <point x="352" y="-105" type="curve"/>
      <point x="352" y="-69"/>
      <point x="355" y="-48"/>
      <point x="367" y="-48" type="curve"/>
      <point x="380" y="-48"/>
      <point x="380" y="-65"/>
      <point x="380" y="-84" type="curve"/>
      <point x="380" y="-244" type="line"/>
      <point x="488" y="-244" type="line"/>
      <point x="488" y="-71" type="line" smooth="yes"/>
      <point x="488" y="-5"/>
      <point x="443" y="36"/>
      <point x="370" y="36" type="curve"/>
      <point x="275" y="36"/>
      <point x="244" y="-24"/>
      <point x="244" y="-97" type="curve"/>
      <point x="244" y="-128"/>
      <point x="250" y="-169"/>
      <point x="264" y="-203" type="curve"/>
      <point x="291" y="-155" type="line"/>
      <point x="281" y="-162"/>
      <point x="272" y="-165"/>
      <point x="263" y="-165" type="curve"/>
      <point x="237" y="-165"/>
      <point x="219" y="-137"/>
      <point x="219" y="-96" type="curve"/>
      <point x="219" y="-67"/>
      <point x="231" y="-36"/>
      <point x="251" y="-10" type="curve"/>
      <point x="178" y="40" type="line"/>
      <point x="132" y="-2"/>
      <point x="111" y="-54"/>
      <point x="111" y="-102" type="curve"/>
      <point x="111" y="-192"/>
      <point x="183" y="-248"/>
    </contour>
    <contour>
      <point x="303" y="156" type="line"/>
      <point x="292" y="0" type="line"/>
      <point x="428" y="0" type="line"/>
      <point x="428" y="280" type="line"/>
    </contour>
    <contour>
      <point x="266" y="118" type="curve"/>
      <point x="266" y="118" type="line"/>
      <point x="362" y="118"/>
      <point x="428" y="185"/>
      <point x="428" y="280" type="curve"/>
      <point x="428" y="374"/>
      <point x="363" y="438"/>
      <point x="269" y="438" type="curve"/>
      <point x="176" y="438"/>
      <point x="113" y="373"/>
      <point x="113" y="277" type="curve"/>
      <point x="113" y="183"/>
      <point x="173" y="118"/>
    </contour>
    <contour>
      <point x="270" y="226" type="curve"/>
      <point x="270" y="226" type="line"/>
      <point x="249" y="226"/>
      <point x="239" y="242"/>
      <point x="239" y="278" type="curve"/>
      <point x="239" y="316"/>
      <point x="249" y="334"/>
      <point x="270" y="334" type="curve"/>
      <point x="291" y="334"/>
      <point x="300" y="317"/>
      <point x="300" y="278" type="curve"/>
      <point x="300" y="241"/>
      <point x="291" y="226"/>
    </contour>
    <contour>
      <point x="139" y="249" type="curve"/>
      <point x="139" y="249" type="line"/>
      <point x="198" y="334" type="line"/>
      <point x="174" y="356"/>
      <point x="161" y="386"/>
      <point x="161" y="419" type="curve"/>
      <point x="161" y="493"/>
      <point x="225" y="530"/>
      <point x="300" y="530" type="curve"/>
      <point x="374" y="530"/>
      <point x="440" y="493"/>
      <point x="440" y="417" type="curve"/>
      <point x="440" y="404"/>
      <point x="438" y="391"/>
      <point x="434" y="378" type="curve"/>
      <point x="574" y="339" type="line"/>
      <point x="582" y="364"/>
      <point x="587" y="393"/>
      <point x="587" y="422" type="curve"/>
      <point x="587" y="583"/>
      <point x="445" y="666"/>
      <point x="300" y="666" type="curve"/>
      <point x="155" y="666"/>
      <point x="16" y="583"/>
      <point x="16" y="435" type="curve"/>
      <point x="16" y="359"/>
      <point x="53" y="292"/>
    </contour>
  </outline>
</glyph>
<glyph name="ca-oriya.below" format="2">
  <note>
casubscriptorya
</note>
  <guideline x="169" y="155" angle="90"/>
  <anchor x="189" y="110" name="_bottom"/>
  <anchor x="170" y="-368" name="nukta"/>
  <outline>
    <contour>
      <point x="88" y="-144" type="curve"/>
      <point x="88" y="-144" type="line"/>
      <point x="129" y="-88" type="line"/>
      <point x="114" y="-74"/>
      <point x="106" y="-57"/>
      <point x="106" y="-36" type="curve"/>
      <point x="106" y="6"/>
      <point x="138" y="26"/>
      <point x="171" y="26" type="curve"/>
      <point x="203" y="26"/>
      <point x="235" y="6"/>
      <point x="235" y="-36" type="curve"/>
      <point x="235" y="-45"/>
      <point x="233" y="-56"/>
      <point x="230" y="-67" type="curve"/>
      <point x="326" y="-90" type="line"/>
      <point x="331" y="-74"/>
      <point x="335" y="-54"/>
      <point x="335" y="-33" type="curve"/>
      <point x="335" y="56"/>
      <point x="267" y="116"/>
      <point x="166" y="116" type="curve"/>
      <point x="70" y="116"/>
      <point x="6" y="62"/>
      <point x="6" y="-20" type="curve"/>
      <point x="6" y="-68"/>
      <point x="31" y="-116"/>
    </contour>
    <contour>
      <point x="153" y="-248" type="curve"/>
      <point x="153" y="-248" type="line"/>
      <point x="214" y="-248"/>
      <point x="250" y="-209"/>
      <point x="250" y="-149" type="curve"/>
      <point x="250" y="-87"/>
      <point x="214" y="-48"/>
      <point x="153" y="-48" type="curve"/>
      <point x="93" y="-48"/>
      <point x="56" y="-86"/>
      <point x="56" y="-148" type="curve"/>
      <point x="56" y="-209"/>
      <point x="92" y="-248"/>
    </contour>
    <contour>
      <point x="153" y="-176" type="curve"/>
      <point x="153" y="-176" type="line"/>
      <point x="143" y="-176"/>
      <point x="138" y="-167"/>
      <point x="138" y="-148" type="curve"/>
      <point x="138" y="-129"/>
      <point x="143" y="-120"/>
      <point x="153" y="-120" type="curve"/>
      <point x="163" y="-120"/>
      <point x="168" y="-129"/>
      <point x="168" y="-148" type="curve"/>
      <point x="168" y="-167"/>
      <point x="163" y="-176"/>
    </contour>
  </outline>
</glyph>
<glyph name="dara-oriya" format="2">
  <advance width="688"/>
  <anchor x="344" y="-350" name="nukta"/>
  <anchor x="334" y="658" name="top"/>
  <anchor x="542" y="658" name="topright"/>
  <outline>
    <contour>
      <point x="264" y="44" type="curve"/>
      <point x="264" y="44" type="line"/>
      <point x="357" y="44"/>
      <point x="445" y="102"/>
      <point x="445" y="221" type="curve"/>
      <point x="367" y="221" type="line"/>
      <point x="367" y="184"/>
      <point x="340" y="164"/>
      <point x="310" y="164" type="curve"/>
      <point x="279" y="164"/>
      <point x="264" y="184"/>
      <point x="264" y="211" type="curve"/>
      <point x="264" y="240"/>
      <point x="282" y="277"/>
      <point x="313" y="306" type="curve"/>
      <point x="240" y="394" type="line"/>
      <point x="156" y="343"/>
      <point x="113" y="260"/>
      <point x="113" y="188" type="curve"/>
      <point x="113" y="109"/>
      <point x="166" y="44"/>
    </contour>
    <contour>
      <point x="363" y="95" type="line"/>
      <point x="346" y="0" type="line"/>
      <point x="493" y="0" type="line"/>
      <point x="493" y="320" type="line"/>
      <point x="346" y="320" type="line"/>
      <point x="346" y="156" type="line"/>
    </contour>
    <contour>
      <point x="140" y="179" type="curve"/>
      <point x="140" y="179" type="line"/>
      <point x="199" y="284" type="line"/>
      <point x="174" y="315"/>
      <point x="163" y="347"/>
      <point x="163" y="380" type="curve"/>
      <point x="163" y="473"/>
      <point x="251" y="520"/>
      <point x="340" y="520" type="curve"/>
      <point x="430" y="520"/>
      <point x="520" y="472"/>
      <point x="520" y="373" type="curve"/>
      <point x="520" y="354"/>
      <point x="517" y="334"/>
      <point x="510" y="315" type="curve"/>
      <point x="651" y="262" type="line"/>
      <point x="664" y="301"/>
      <point x="672" y="335"/>
      <point x="672" y="377" type="curve"/>
      <point x="672" y="569"/>
      <point x="501" y="666"/>
      <point x="334" y="666" type="curve"/>
      <point x="173" y="666"/>
      <point x="16" y="577"/>
      <point x="16" y="400" type="curve"/>
      <point x="16" y="316"/>
      <point x="54" y="240"/>
    </contour>
    <contour>
      <point x="153" y="-200" type="line"/>
      <point x="653" y="-200" type="line"/>
      <point x="653" y="20" type="line"/>
      <point x="506" y="20" type="line"/>
      <point x="506" y="-70" type="line"/>
      <point x="153" y="-70" type="line"/>
    </contour>
  </outline>
</glyph>
<glyph name="ddha-oriya.below" format="2">
  <note>
ddhasubscriptorya
</note>
  <guideline x="136" y="158" angle="90"/>
  <anchor x="136" y="110" name="_bottom"/>
  <anchor x="135" y="-358" name="nukta"/>
  <outline>
    <contour>
      <point x="258" y="-248" type="curve"/>
      <point x="258" y="-248" type="line"/>
      <point x="265" y="-159" type="line"/>
      <point x="175" y="-156"/>
      <point x="106" y="-125"/>
      <point x="106" y="-29" type="curve"/>
      <point x="106" y="11"/>
      <point x="117" y="26"/>
      <point x="133" y="26" type="curve"/>
      <point x="148" y="26"/>
      <point x="157" y="11"/>
      <point x="157" y="-6" type="curve"/>
      <point x="157" y="-23"/>
      <point x="147" y="-42"/>
      <point x="120" y="-42" type="curve"/>
      <point x="100" y="-42"/>
      <point x="81" y="-32"/>
      <point x="69" y="-20" type="curve"/>
      <point x="54" y="-83" type="line"/>
      <point x="79" y="-104"/>
      <point x="108" y="-114"/>
      <point x="140" y="-114" type="curve"/>
      <point x="215" y="-114"/>
      <point x="257" y="-57"/>
      <point x="257" y="1" type="curve"/>
      <point x="257" y="59"/>
      <point x="216" y="116"/>
      <point x="136" y="116" type="curve"/>
      <point x="50" y="116"/>
      <point x="6" y="50"/>
      <point x="6" y="-33" type="curve"/>
      <point x="6" y="-132"/>
      <point x="75" y="-240"/>
    </contour>
  </outline>
</glyph>
<glyph name="ddhara-oriya" format="2">
  <advance width="651"/>
  <guideline x="618" y="175" angle="90"/>
  <anchor x="322" y="658" name="top"/>
  <anchor x="575" y="658" name="topright"/>
  <outline>
    <contour>
      <point x="76" y="195" type="curve"/>
      <point x="76" y="195" type="line"/>
      <point x="76" y="60"/>
      <point x="163" y="-8"/>
      <point x="278" y="-8" type="curve"/>
      <point x="434" y="-8"/>
      <point x="500" y="118"/>
      <point x="500" y="215" type="curve"/>
      <point x="500" y="309"/>
      <point x="438" y="357"/>
      <point x="368" y="357" type="curve"/>
      <point x="298" y="357"/>
      <point x="239" y="310"/>
      <point x="239" y="222" type="curve"/>
      <point x="239" y="116"/>
      <point x="324" y="17"/>
      <point x="448" y="-31" type="curve"/>
      <point x="499" y="77" type="line"/>
      <point x="396" y="98"/>
      <point x="347" y="144"/>
      <point x="347" y="208" type="curve"/>
      <point x="347" y="233"/>
      <point x="356" y="245"/>
      <point x="370" y="245" type="curve"/>
      <point x="384" y="245"/>
      <point x="392" y="233"/>
      <point x="392" y="207" type="curve"/>
      <point x="392" y="162"/>
      <point x="369" y="114"/>
      <point x="295" y="114" type="curve"/>
      <point x="232" y="114"/>
      <point x="205" y="149"/>
      <point x="205" y="206" type="curve"/>
      <point x="205" y="260"/>
      <point x="229" y="315"/>
      <point x="296" y="365" type="curve"/>
      <point x="228" y="446" type="line"/>
      <point x="135" y="387"/>
      <point x="76" y="307"/>
    </contour>
    <contour>
      <point x="141" y="196" type="curve"/>
      <point x="141" y="196" type="line"/>
      <point x="203" y="290" type="line"/>
      <point x="177" y="316"/>
      <point x="164" y="350"/>
      <point x="164" y="385" type="curve"/>
      <point x="164" y="473"/>
      <point x="243" y="520"/>
      <point x="326" y="520" type="curve"/>
      <point x="406" y="520"/>
      <point x="483" y="475"/>
      <point x="483" y="383" type="curve"/>
      <point x="483" y="366"/>
      <point x="480" y="349"/>
      <point x="475" y="331" type="curve"/>
      <point x="618" y="284" type="line"/>
      <point x="630" y="317"/>
      <point x="635" y="354"/>
      <point x="635" y="389" type="curve"/>
      <point x="635" y="572"/>
      <point x="479" y="666"/>
      <point x="323" y="666" type="curve"/>
      <point x="167" y="666"/>
      <point x="16" y="574"/>
      <point x="16" y="404" type="curve"/>
      <point x="16" y="319"/>
      <point x="54" y="244"/>
    </contour>
    <contour>
      <point x="97" y="-200" type="line"/>
      <point x="623" y="-200" type="line"/>
      <point x="623" y="20" type="line"/>
      <point x="476" y="20" type="line"/>
      <point x="476" y="-136" type="line"/>
      <point x="542" y="-70" type="line"/>
      <point x="97" y="-70" type="line"/>
    </contour>
  </outline>
</glyph>
<glyph name="emdash.latn" format="2">
  <advance width="1000"/>
  <outline>
    <contour>
      <point x="29" y="202" type="line"/>
      <point x="971" y="202" type="line"/>
      <point x="971" y="337" type="line"/>
      <point x="29" y="337" type="line"/>
    </contour>
  </outline>
</glyph>
<glyph name="ha-oriya.below" format="2">
  <note>
hasubscriptorya
</note>
  <guideline x="189" y="157" angle="90"/>
  <anchor x="209" y="110" name="_bottom"/>
  <anchor x="112" y="-236" name="bottom"/>
  <anchor x="206" y="-233" name="bottom_ra"/>
  <anchor x="188" y="-391" name="nukta"/>
  <outline>
    <contour>
      <point x="89" y="-125" type="curve"/>
      <point x="89" y="-125" type="line"/>
      <point x="119" y="-81" type="line"/>
      <point x="105" y="-70"/>
      <point x="94" y="-52"/>
      <point x="94" y="-32" type="curve"/>
      <point x="94" y="5"/>
      <point x="133" y="26"/>
      <point x="181" y="26" type="curve"/>
      <point x="229" y="26"/>
      <point x="274" y="5"/>
      <point x="274" y="-38" type="curve"/>
      <point x="274" y="-48"/>
      <point x="272" y="-59"/>
      <point x="267" y="-70" type="curve"/>
      <point x="354" y="-103" type="line"/>
      <point x="365" y="-81"/>
      <point x="371" y="-55"/>
      <point x="371" y="-29" type="curve"/>
      <point x="371" y="68"/>
      <point x="276" y="116"/>
      <point x="182" y="116" type="curve"/>
      <point x="93" y="116"/>
      <point x="6" y="72"/>
      <point x="6" y="-13" type="curve"/>
      <point x="6" y="-61"/>
      <point x="36" y="-108"/>
    </contour>
    <contour>
      <point x="54" y="-221" type="line"/>
      <point x="277" y="-291" type="line"/>
      <point x="301" y="-227" type="line"/>
      <point x="107" y="-166" type="line"/>
      <point x="96" y="-206" type="line"/>
      <point x="164" y="-148" type="line"/>
      <point x="112" y="-124" type="line"/>
      <point x="46" y="-176" type="line"/>
    </contour>
    <contour>
      <point x="77" y="-83" type="curve"/>
      <point x="77" y="-83" type="line"/>
      <point x="77" y="-134"/>
      <point x="118" y="-161"/>
      <point x="159" y="-161" type="curve"/>
      <point x="182" y="-161"/>
      <point x="205" y="-152"/>
      <point x="223" y="-134" type="curve"/>
      <point x="190" y="-79" type="line"/>
      <point x="188" y="-92"/>
      <point x="179" y="-99"/>
      <point x="166" y="-99" type="curve"/>
      <point x="156" y="-99"/>
      <point x="149" y="-90"/>
      <point x="149" y="-76" type="curve"/>
      <point x="149" y="-64"/>
      <point x="154" y="-52"/>
      <point x="169" y="-38" type="curve"/>
      <point x="139" y="5" type="line"/>
      <point x="90" y="-16"/>
      <point x="77" y="-54"/>
    </contour>
    <contour>
      <point x="184" y="-132" type="line"/>
      <point x="179" y="-181" type="line"/>
      <point x="259" y="-181" type="line"/>
      <point x="259" y="-22" type="line"/>
      <point x="181" y="-22" type="line"/>
      <point x="181" y="-121" type="line"/>
    </contour>
  </outline>
</glyph>
<glyph name="haja-oriya" format="2">
  <advance width="630"/>
  <note>
hajaorya
</note>
  <guideline x="436" y="206" angle="90"/>
  <guideline x="496" y="206" angle="90"/>
  <anchor x="402" y="-164" name="bottom"/>
  <anchor x="496" y="-164" name="bottom_ra"/>
  <anchor x="365" y="-278" name="nukta"/>
  <anchor x="306" y="658" name="top"/>
  <anchor x="484" y="658" name="topright"/>
  <outline>
    <contour>
      <point x="94" y="121" type="line"/>
      <point x="333" y="30" type="line"/>
      <point x="442" y="106" type="line"/>
      <point x="226" y="190" type="line"/>
      <point x="180" y="141" type="line"/>
      <point x="290" y="233" type="line"/>
      <point x="193" y="272" type="line"/>
      <point x="83" y="185" type="line"/>
    </contour>
    <contour>
      <point x="261" y="210" type="curve"/>
      <point x="261" y="210" type="line"/>
      <point x="296" y="210"/>
      <point x="335" y="223"/>
      <point x="363" y="257" type="curve"/>
      <point x="326" y="344" type="line"/>
      <point x="322" y="322"/>
      <point x="305" y="312"/>
      <point x="289" y="312" type="curve"/>
      <point x="271" y="312"/>
      <point x="255" y="325"/>
      <point x="255" y="350" type="curve"/>
      <point x="255" y="370"/>
      <point x="265" y="395"/>
      <point x="291" y="415" type="curve"/>
      <point x="236" y="492" type="line"/>
      <point x="160" y="461"/>
      <point x="117" y="396"/>
      <point x="117" y="336" type="curve"/>
      <point x="117" y="260"/>
      <point x="188" y="210"/>
    </contour>
    <contour>
      <point x="327" y="268" type="line"/>
      <point x="310" y="182" type="line"/>
      <point x="436" y="182" type="line"/>
      <point x="436" y="436" type="line"/>
      <point x="306" y="436" type="line"/>
      <point x="306" y="287" type="line"/>
    </contour>
    <contour>
      <point x="449" y="349" type="curve"/>
      <point x="579" y="288" type="line"/>
      <point x="603" y="329"/>
      <point x="614" y="377"/>
      <point x="614" y="422" type="curve"/>
      <point x="614" y="583"/>
      <point x="465" y="666"/>
      <point x="306" y="666" type="curve"/>
      <point x="145" y="666"/>
      <point x="16" y="583"/>
      <point x="16" y="448" type="curve"/>
      <point x="16" y="373"/>
      <point x="55" y="319"/>
      <point x="140" y="281" type="curve"/>
      <point x="199" y="336" type="line"/>
      <point x="174" y="362"/>
      <point x="161" y="397"/>
      <point x="161" y="428" type="curve"/>
      <point x="161" y="496"/>
      <point x="224" y="530"/>
      <point x="305" y="530" type="curve"/>
      <point x="393" y="530"/>
      <point x="464" y="493"/>
      <point x="464" y="416" type="curve"/>
      <point x="464" y="395"/>
      <point x="459" y="372"/>
    </contour>
    <contour>
      <point x="309" y="-168" type="curve"/>
      <point x="309" y="-168" type="line"/>
      <point x="334" y="-168"/>
      <point x="364" y="-163"/>
      <point x="390" y="-156" type="curve"/>
      <point x="384" y="-121"/>
      <point x="378" y="-70"/>
      <point x="378" y="-25" type="curve"/>
      <point x="378" y="11"/>
      <point x="380" y="32"/>
      <point x="391" y="32" type="curve"/>
      <point x="402" y="32"/>
      <point x="402" y="15"/>
      <point x="402" y="-4" type="curve"/>
      <point x="402" y="-164" type="line"/>
      <point x="496" y="-164" type="line"/>
      <point x="496" y="9" type="line" smooth="yes"/>
      <point x="496" y="75"/>
      <point x="457" y="116"/>
      <point x="393" y="116" type="curve"/>
      <point x="311" y="116"/>
      <point x="284" y="56"/>
      <point x="284" y="-17" type="curve"/>
      <point x="284" y="-48"/>
      <point x="289" y="-89"/>
      <point x="301" y="-123" type="curve"/>
      <point x="325" y="-75" type="line"/>
      <point x="316" y="-82"/>
      <point x="308" y="-85"/>
      <point x="300" y="-85" type="curve"/>
      <point x="278" y="-85"/>
      <point x="262" y="-57"/>
      <point x="262" y="-16" type="curve"/>
      <point x="262" y="0"/>
      <point x="265" y="18"/>
      <point x="272" y="34" type="curve"/>
      <point x="188" y="65" type="line"/>
      <point x="174" y="37"/>
      <point x="168" y="6"/>
      <point x="168" y="-22" type="curve"/>
      <point x="168" y="-112"/>
      <point x="231" y="-168"/>
    </contour>
  </outline>
</glyph>
<glyph name="hau-oriya" format="2">
  <advance width="630"/>
  <note>
huorya
</note>
  <guideline x="306" y="184" angle="90"/>
  <guideline x="436" y="184" angle="90"/>
  <anchor x="189" y="-237" name="bottom"/>
  <anchor x="296" y="-226" name="bottom_ra"/>
  <anchor x="85" y="-308" name="nukta"/>
  <anchor x="306" y="658" name="top"/>
  <anchor x="484" y="658" name="topright"/>
  <outline>
    <contour>
      <point x="239" y="-248" type="curve"/>
      <point x="239" y="-248" type="line"/>
      <point x="341" y="-248"/>
      <point x="436" y="-151"/>
      <point x="436" y="44" type="curve"/>
      <point x="306" y="74" type="line"/>
      <point x="306" y="44" type="line"/>
      <point x="306" y="-41"/>
      <point x="296" y="-140"/>
      <point x="244" y="-140" type="curve"/>
      <point x="228" y="-140"/>
      <point x="220" y="-130"/>
      <point x="220" y="-118" type="curve"/>
      <point x="220" y="-105"/>
      <point x="230" y="-96"/>
      <point x="241" y="-96" type="curve"/>
      <point x="288" y="-96"/>
      <point x="363" y="-248"/>
      <point x="467" y="-248" type="curve"/>
      <point x="495" y="-248"/>
      <point x="524" y="-238"/>
      <point x="555" y="-211" type="curve"/>
      <point x="504" y="-111" type="line"/>
      <point x="488" y="-124"/>
      <point x="472" y="-130"/>
      <point x="458" y="-130" type="curve"/>
      <point x="389" y="-130"/>
      <point x="346" y="12"/>
      <point x="228" y="12" type="curve"/>
      <point x="154" y="12"/>
      <point x="102" y="-45"/>
      <point x="102" y="-116" type="curve"/>
      <point x="102" y="-190"/>
      <point x="159" y="-248"/>
    </contour>
    <contour>
      <point x="94" y="121" type="line"/>
      <point x="467" y="5" type="line"/>
      <point x="506" y="106" type="line"/>
      <point x="226" y="190" type="line"/>
      <point x="180" y="141" type="line"/>
      <point x="290" y="233" type="line"/>
      <point x="193" y="272" type="line"/>
      <point x="83" y="185" type="line"/>
    </contour>
    <contour>
      <point x="261" y="210" type="curve"/>
      <point x="261" y="210" type="line"/>
      <point x="296" y="210"/>
      <point x="335" y="223"/>
      <point x="363" y="257" type="curve"/>
      <point x="326" y="344" type="line"/>
      <point x="322" y="322"/>
      <point x="305" y="312"/>
      <point x="289" y="312" type="curve"/>
      <point x="271" y="312"/>
      <point x="255" y="325"/>
      <point x="255" y="350" type="curve"/>
      <point x="255" y="370"/>
      <point x="265" y="395"/>
      <point x="291" y="415" type="curve"/>
      <point x="236" y="492" type="line"/>
      <point x="160" y="461"/>
      <point x="117" y="396"/>
      <point x="117" y="336" type="curve"/>
      <point x="117" y="260"/>
      <point x="188" y="210"/>
    </contour>
    <contour>
      <point x="327" y="268" type="line"/>
      <point x="310" y="182" type="line"/>
      <point x="436" y="182" type="line"/>
      <point x="436" y="436" type="line"/>
      <point x="306" y="436" type="line"/>
      <point x="306" y="287" type="line"/>
    </contour>
    <contour>
      <point x="449" y="349" type="curve"/>
      <point x="579" y="288" type="line"/>
      <point x="603" y="329"/>
      <point x="614" y="377"/>
      <point x="614" y="422" type="curve"/>
      <point x="614" y="583"/>
      <point x="465" y="666"/>
      <point x="306" y="666" type="curve"/>
      <point x="145" y="666"/>
      <point x="16" y="583"/>
      <point x="16" y="448" type="curve"/>
      <point x="16" y="373"/>
      <point x="55" y="319"/>
      <point x="140" y="281" type="curve"/>
      <point x="199" y="336" type="line"/>
      <point x="174" y="362"/>
      <point x="161" y="397"/>
      <point x="161" y="428" type="curve"/>
      <point x="161" y="496"/>
      <point x="224" y="530"/>
      <point x="305" y="530" type="curve"/>
      <point x="393" y="530"/>
      <point x="464" y="493"/>
      <point x="464" y="416" type="curve"/>
      <point x="464" y="395"/>
      <point x="459" y="372"/>
    </contour>
  </outline>
</glyph>
<glyph name="ja-oriya.below" format="2">
  <note>
jasubscriptorya
</note>
  <guideline x="171" y="206" angle="90"/>
  <anchor x="216" y="110" name="_bottom"/>
  <anchor x="190" y="-298" name="nukta"/>
  <outline>
    <contour>
      <point x="147" y="-168" type="curve"/>
      <point x="147" y="-168" type="line"/>
      <point x="172" y="-168"/>
      <point x="202" y="-163"/>
      <point x="228" y="-156" type="curve"/>
      <point x="222" y="-121"/>
      <point x="216" y="-70"/>
      <point x="216" y="-25" type="curve"/>
      <point x="216" y="11"/>
      <point x="218" y="32"/>
      <point x="229" y="32" type="curve"/>
      <point x="240" y="32"/>
      <point x="240" y="15"/>
      <point x="240" y="-4" type="curve"/>
      <point x="240" y="-164" type="line"/>
      <point x="334" y="-164" type="line"/>
      <point x="334" y="9" type="line" smooth="yes"/>
      <point x="334" y="75"/>
      <point x="295" y="116"/>
      <point x="231" y="116" type="curve"/>
      <point x="149" y="116"/>
      <point x="122" y="56"/>
      <point x="122" y="-17" type="curve"/>
      <point x="122" y="-48"/>
      <point x="127" y="-89"/>
      <point x="139" y="-123" type="curve"/>
      <point x="163" y="-75" type="line"/>
      <point x="154" y="-82"/>
      <point x="146" y="-85"/>
      <point x="138" y="-85" type="curve"/>
      <point x="116" y="-85"/>
      <point x="100" y="-57"/>
      <point x="100" y="-16" type="curve"/>
      <point x="100" y="13"/>
      <point x="110" y="44"/>
      <point x="128" y="70" type="curve"/>
      <point x="64" y="120" type="line"/>
      <point x="24" y="78"/>
      <point x="6" y="26"/>
      <point x="6" y="-22" type="curve"/>
      <point x="6" y="-112"/>
      <point x="69" y="-168"/>
    </contour>
  </outline>
</glyph>
<glyph name="java-oriya" format="2">
  <advance width="666"/>
  <anchor x="325" y="658" name="top"/>
  <anchor x="520" y="658" name="topright"/>
  <outline>
    <contour>
      <point x="137" y="236" type="curve"/>
      <point x="137" y="236" type="line"/>
      <point x="196" y="328" type="line"/>
      <point x="172" y="355"/>
      <point x="161" y="384"/>
      <point x="161" y="412" type="curve"/>
      <point x="161" y="479"/>
      <point x="226" y="530"/>
      <point x="329" y="530" type="curve"/>
      <point x="428" y="530"/>
      <point x="500" y="482"/>
      <point x="500" y="407" type="curve"/>
      <point x="500" y="396"/>
      <point x="498" y="384"/>
      <point x="496" y="371" type="curve"/>
      <point x="637" y="328" type="line"/>
      <point x="645" y="355"/>
      <point x="650" y="380"/>
      <point x="650" y="409" type="curve"/>
      <point x="650" y="580"/>
      <point x="488" y="666"/>
      <point x="327" y="666" type="curve"/>
      <point x="169" y="666"/>
      <point x="16" y="584"/>
      <point x="16" y="431" type="curve"/>
      <point x="16" y="357"/>
      <point x="52" y="290"/>
    </contour>
    <contour>
      <point x="323" y="-207" type="curve"/>
      <point x="323" y="-207" type="line"/>
      <point x="368" y="-207"/>
      <point x="409" y="-188"/>
      <point x="440" y="-146" type="curve"/>
      <point x="393" y="-68" type="line"/>
      <point x="384" y="-95"/>
      <point x="366" y="-110"/>
      <point x="347" y="-110" type="curve"/>
      <point x="325" y="-110"/>
      <point x="314" y="-90"/>
      <point x="314" y="-58" type="curve"/>
      <point x="314" y="-42"/>
      <point x="317" y="-22"/>
      <point x="323" y="2" type="curve"/>
      <point x="216" y="20" type="line"/>
      <point x="204" y="-9"/>
      <point x="198" y="-39"/>
      <point x="198" y="-68" type="curve"/>
      <point x="198" y="-146"/>
      <point x="240" y="-207"/>
    </contour>
    <contour>
      <point x="377" y="-244" type="line"/>
      <point x="517" y="-244" type="line"/>
      <point x="517" y="280" type="line" smooth="yes"/>
      <point x="517" y="358"/>
      <point x="470" y="403"/>
      <point x="382" y="405" type="curve"/>
      <point x="267" y="408"/>
      <point x="236" y="335"/>
      <point x="236" y="253" type="curve"/>
      <point x="236" y="211"/>
      <point x="244" y="163"/>
      <point x="256" y="121" type="curve"/>
      <point x="286" y="193" type="line"/>
      <point x="284" y="189"/>
      <point x="270" y="183"/>
      <point x="257" y="183" type="curve"/>
      <point x="226" y="183"/>
      <point x="210" y="214"/>
      <point x="208" y="247" type="curve"/>
      <point x="204" y="302"/>
      <point x="236" y="360"/>
      <point x="288" y="403" type="curve"/>
      <point x="236" y="469" type="line"/>
      <point x="138" y="424"/>
      <point x="86" y="345"/>
      <point x="83" y="252" type="curve"/>
      <point x="79" y="127"/>
      <point x="171" y="72"/>
      <point x="273" y="72" type="curve"/>
      <point x="301" y="72"/>
      <point x="334" y="76"/>
      <point x="364" y="83" type="curve"/>
      <point x="357" y="126"/>
      <point x="351" y="187"/>
      <point x="351" y="243" type="curve"/>
      <point x="351" y="265"/>
      <point x="352" y="292"/>
      <point x="366" y="292" type="curve"/>
      <point x="377" y="292"/>
      <point x="377" y="279"/>
      <point x="377" y="263" type="curve"/>
      <point x="377" y="-142" type="line"/>
      <point x="384" y="-151" type="line"/>
    </contour>
  </outline>
</glyph>
<glyph name="jha-oriya.below" format="2">
  <note>
jhasubscriptorya
</note>
  <guideline x="175" y="155" angle="90"/>
  <anchor x="152" y="110" name="_bottom"/>
  <outline>
    <contour>
      <point x="88" y="-144" type="curve"/>
      <point x="88" y="-144" type="line"/>
      <point x="129" y="-88" type="line"/>
      <point x="114" y="-75"/>
      <point x="106" y="-58"/>
      <point x="106" y="-38" type="curve"/>
      <point x="106" y="-4"/>
      <point x="122" y="36"/>
      <point x="179" y="36" type="curve"/>
      <point x="186" y="36"/>
      <point x="192" y="36"/>
      <point x="199" y="36" type="curve"/>
      <point x="181" y="116" type="line"/>
      <point x="178" y="116"/>
      <point x="175" y="116"/>
      <point x="164" y="116" type="curve"/>
      <point x="73" y="116"/>
      <point x="6" y="62"/>
      <point x="6" y="-19" type="curve"/>
      <point x="6" y="-70"/>
      <point x="32" y="-117"/>
    </contour>
    <contour>
      <point x="185" y="-194" type="line"/>
      <point x="293" y="-249" type="line"/>
      <point x="330" y="-160" type="line"/>
      <point x="217" y="-119" type="line"/>
    </contour>
    <contour>
      <point x="247" y="-53" type="curve"/>
      <point x="247" y="-53" type="line"/>
      <point x="310" y="-53"/>
      <point x="344" y="-13"/>
      <point x="344" y="34" type="curve"/>
      <point x="344" y="61"/>
      <point x="333" y="90"/>
      <point x="311" y="116" type="curve"/>
      <point x="258" y="76" type="line"/>
      <point x="262" y="67"/>
      <point x="264" y="57"/>
      <point x="264" y="47" type="curve"/>
      <point x="264" y="33"/>
      <point x="259" y="21"/>
      <point x="247" y="21" type="curve"/>
      <point x="235" y="21"/>
      <point x="230" y="34"/>
      <point x="230" y="48" type="curve"/>
      <point x="230" y="58"/>
      <point x="233" y="69"/>
      <point x="236" y="76" type="curve"/>
      <point x="181" y="116" type="line"/>
      <point x="159" y="89"/>
      <point x="150" y="63"/>
      <point x="150" y="36" type="curve"/>
      <point x="150" y="-20"/>
      <point x="190" y="-53"/>
    </contour>
    <contour>
      <point x="153" y="-248" type="curve"/>
      <point x="153" y="-248" type="line"/>
      <point x="214" y="-248"/>
      <point x="250" y="-209"/>
      <point x="250" y="-149" type="curve"/>
      <point x="250" y="-87"/>
      <point x="214" y="-48"/>
      <point x="153" y="-48" type="curve"/>
      <point x="93" y="-48"/>
      <point x="56" y="-86"/>
      <point x="56" y="-148" type="curve"/>
      <point x="56" y="-209"/>
      <point x="92" y="-248"/>
    </contour>
    <contour>
      <point x="153" y="-176" type="curve"/>
      <point x="153" y="-176" type="line"/>
      <point x="143" y="-176"/>
      <point x="138" y="-167"/>
      <point x="138" y="-148" type="curve"/>
      <point x="138" y="-129"/>
      <point x="143" y="-120"/>
      <point x="153" y="-120" type="curve"/>
      <point x="163" y="-120"/>
      <point x="168" y="-129"/>
      <point x="168" y="-148" type="curve"/>
      <point x="168" y="-167"/>
      <point x="163" y="-176"/>
    </contour>
  </outline>
</glyph>
<glyph name="la-oriya.below" format="2">
  <note>
lasubscriptorya
</note>
  <guideline x="183" y="199" angle="90"/>
  <anchor x="213" y="110" name="_bottom"/>
  <anchor x="296" y="-164" name="bottom"/>
  <anchor x="390" y="-164" name="bottom_ra"/>
  <anchor x="188" y="-291" name="nukta"/>
  <outline>
    <contour>
      <point x="297" y="-69" type="line"/>
      <point x="346" y="-131" type="line"/>
      <point x="346" y="4" type="line" smooth="yes"/>
      <point x="346" y="79"/>
      <point x="315" y="116"/>
      <point x="255" y="116" type="curve"/>
      <point x="194" y="116"/>
      <point x="156" y="77"/>
      <point x="156" y="-3" type="curve"/>
      <point x="200" y="-3" type="line"/>
      <point x="200" y="76"/>
      <point x="168" y="116"/>
      <point x="108" y="116" type="curve"/>
      <point x="31" y="116"/>
      <point x="6" y="51"/>
      <point x="6" y="-31" type="curve"/>
      <point x="6" y="-78"/>
      <point x="14" y="-128"/>
      <point x="22" y="-175" type="curve"/>
      <point x="121" y="-158" type="line"/>
      <point x="115" y="-126"/>
      <point x="111" y="-84"/>
      <point x="111" y="-29" type="curve"/>
      <point x="111" y="-1"/>
      <point x="112" y="26"/>
      <point x="126" y="26" type="curve"/>
      <point x="133" y="26"/>
      <point x="135" y="21"/>
      <point x="135" y="12" type="curve"/>
      <point x="135" y="-164" type="line"/>
      <point x="230" y="-164" type="line"/>
      <point x="230" y="12" type="line" smooth="yes"/>
      <point x="230" y="20"/>
      <point x="234" y="26"/>
      <point x="241" y="26" type="curve"/>
      <point x="247" y="26"/>
      <point x="251" y="20"/>
      <point x="251" y="12" type="curve"/>
      <point x="251" y="-164" type="line"/>
      <point x="390" y="-164" type="line"/>
      <point x="390" y="-69" type="line"/>
    </contour>
  </outline>
</glyph>
<glyph name="lla-oriya.below" format="2">
  <note>
llasubscriptorya
</note>
  <guideline x="183" y="202" angle="90"/>
  <anchor x="213" y="110" name="_bottom"/>
  <anchor x="251" y="-164" name="bottom"/>
  <anchor x="346" y="-164" name="bottom_ra"/>
  <anchor x="186" y="-295" name="nukta"/>
  <outline>
    <contour>
      <point x="251" y="12" type="curve"/>
      <point x="251" y="-164" type="line"/>
      <point x="346" y="-164" type="line"/>
      <point x="346" y="4" type="line" smooth="yes"/>
      <point x="346" y="79"/>
      <point x="315" y="116"/>
      <point x="255" y="116" type="curve"/>
      <point x="194" y="116"/>
      <point x="156" y="77"/>
      <point x="156" y="-3" type="curve"/>
      <point x="200" y="-3" type="line"/>
      <point x="200" y="76"/>
      <point x="168" y="116"/>
      <point x="108" y="116" type="curve"/>
      <point x="31" y="116"/>
      <point x="6" y="51"/>
      <point x="6" y="-31" type="curve"/>
      <point x="6" y="-78"/>
      <point x="14" y="-128"/>
      <point x="22" y="-175" type="curve"/>
      <point x="121" y="-158" type="line"/>
      <point x="115" y="-126"/>
      <point x="111" y="-84"/>
      <point x="111" y="-29" type="curve"/>
      <point x="111" y="-1"/>
      <point x="112" y="26"/>
      <point x="126" y="26" type="curve"/>
      <point x="133" y="26"/>
      <point x="135" y="21"/>
      <point x="135" y="12" type="curve"/>
      <point x="135" y="-164" type="line"/>
      <point x="230" y="-164" type="line"/>
      <point x="230" y="12" type="line" smooth="yes"/>
      <point x="230" y="20"/>
      <point x="234" y="26"/>
      <point x="241" y="26" type="curve"/>
      <point x="247" y="26"/>
      <point x="251" y="20"/>
    </contour>
  </outline>
</glyph>
<glyph name="ma-oriya.below" format="2">
  <note>
masubscriptorya
</note>
  <guideline x="169" y="206" angle="90"/>
  <anchor x="199" y="110" name="_bottom"/>
  <anchor x="168" y="-318" name="nukta"/>
  <outline>
    <contour>
      <point x="23" y="-71" type="curve"/>
      <point x="23" y="-71" type="line"/>
      <point x="23" y="-135"/>
      <point x="69" y="-168"/>
      <point x="123" y="-168" type="curve"/>
      <point x="177" y="-168"/>
      <point x="223" y="-135"/>
      <point x="223" y="-65" type="curve"/>
      <point x="223" y="33"/>
      <point x="128" y="104"/>
      <point x="20" y="116" type="curve"/>
      <point x="6" y="30" type="line"/>
      <point x="113" y="18"/>
      <point x="141" y="-19"/>
      <point x="141" y="-65" type="curve"/>
      <point x="141" y="-85"/>
      <point x="133" y="-96"/>
      <point x="123" y="-96" type="curve"/>
      <point x="112" y="-96"/>
      <point x="105" y="-84"/>
      <point x="105" y="-65" type="curve"/>
      <point x="105" y="-2"/>
      <point x="189" y="33"/>
      <point x="264" y="33" type="curve"/>
      <point x="281" y="33"/>
      <point x="294" y="31"/>
      <point x="307" y="29" type="curve"/>
      <point x="331" y="113" type="line"/>
      <point x="310" y="115"/>
      <point x="301" y="116"/>
      <point x="280" y="116" type="curve"/>
      <point x="153" y="116"/>
      <point x="23" y="38"/>
    </contour>
    <contour>
      <point x="237" y="58" type="line"/>
      <point x="237" y="-164" type="line"/>
      <point x="331" y="-164" type="line"/>
      <point x="331" y="113" type="line"/>
    </contour>
  </outline>
</glyph>
<glyph name="na-oriya.below" format="2">
  <note>
nasubscriptorya
</note>
  <guideline x="150" y="206" angle="90"/>
  <anchor x="180" y="110" name="_bottom"/>
  <anchor x="196" y="-164" name="bottom"/>
  <anchor x="290" y="-164" name="bottom_ra"/>
  <anchor x="160" y="-288" name="nukta"/>
  <outline>
    <contour>
      <point x="91" y="-168" type="curve"/>
      <point x="91" y="-168" type="line"/>
      <point x="138" y="-168"/>
      <point x="162" y="-132"/>
      <point x="162" y="-96" type="curve"/>
      <point x="162" y="-59"/>
      <point x="138" y="-23"/>
      <point x="92" y="-23" type="curve"/>
      <point x="81" y="-23"/>
      <point x="74" y="-24"/>
      <point x="66" y="-27" type="curve"/>
      <point x="107" y="-115" type="line"/>
      <point x="105" y="-103"/>
      <point x="104" y="-92"/>
      <point x="104" y="-82" type="curve"/>
      <point x="104" y="-18"/>
      <point x="145" y="26"/>
      <point x="220" y="26" type="curve"/>
      <point x="233" y="26"/>
      <point x="243" y="25"/>
      <point x="252" y="24" type="curve"/>
      <point x="196" y="47" type="line"/>
      <point x="196" y="-164" type="line"/>
      <point x="290" y="-164" type="line"/>
      <point x="290" y="110" type="line"/>
      <point x="268" y="115"/>
      <point x="245" y="116"/>
      <point x="219" y="116" type="curve"/>
      <point x="107" y="116"/>
      <point x="10" y="33"/>
      <point x="10" y="-65" type="curve"/>
      <point x="10" y="-124"/>
      <point x="39" y="-168"/>
    </contour>
  </outline>
</glyph>
<glyph name="natava-oriya" format="2">
  <advance width="619"/>
  <anchor x="306" y="658" name="top"/>
  <anchor x="471" y="658" name="topright"/>
  <outline>
    <contour>
      <point x="136" y="254" type="curve"/>
      <point x="136" y="254" type="line"/>
      <point x="200" y="336" type="line"/>
      <point x="174" y="358"/>
      <point x="161" y="388"/>
      <point x="161" y="419" type="curve"/>
      <point x="161" y="490"/>
      <point x="233" y="530"/>
      <point x="309" y="530" type="curve"/>
      <point x="386" y="530"/>
      <point x="456" y="493"/>
      <point x="456" y="416" type="curve"/>
      <point x="456" y="402"/>
      <point x="454" y="387"/>
      <point x="449" y="372" type="curve"/>
      <point x="587" y="330" type="line"/>
      <point x="598" y="360"/>
      <point x="603" y="392"/>
      <point x="603" y="421" type="curve"/>
      <point x="603" y="584"/>
      <point x="456" y="666"/>
      <point x="306" y="666" type="curve"/>
      <point x="157" y="666"/>
      <point x="16" y="583"/>
      <point x="16" y="436" type="curve"/>
      <point x="16" y="361"/>
      <point x="52" y="296"/>
    </contour>
    <contour>
      <point x="395" y="-255" type="curve"/>
      <point x="395" y="-255" type="line"/>
      <point x="440" y="-255"/>
      <point x="481" y="-236"/>
      <point x="512" y="-194" type="curve"/>
      <point x="465" y="-116" type="line"/>
      <point x="456" y="-143"/>
      <point x="438" y="-158"/>
      <point x="420" y="-158" type="curve"/>
      <point x="397" y="-158"/>
      <point x="386" y="-138"/>
      <point x="386" y="-109" type="curve"/>
      <point x="386" y="-90"/>
      <point x="389" y="-67"/>
      <point x="396" y="-43" type="curve"/>
      <point x="283" y="-27" type="line"/>
      <point x="274" y="-55"/>
      <point x="270" y="-82"/>
      <point x="270" y="-109" type="curve"/>
      <point x="270" y="-188"/>
      <point x="312" y="-255"/>
    </contour>
    <contour>
      <point x="456" y="-199" type="line"/>
      <point x="449" y="-292" type="line"/>
      <point x="579" y="-292" type="line"/>
      <point x="579" y="-51" type="line"/>
      <point x="449" y="-51" type="line"/>
      <point x="449" y="-190" type="line"/>
    </contour>
    <contour>
      <point x="274" y="-86" type="curve"/>
      <point x="274" y="-86" type="line"/>
      <point x="427" y="-86"/>
      <point x="530" y="1"/>
      <point x="530" y="144" type="curve"/>
      <point x="530" y="239"/>
      <point x="485" y="295"/>
      <point x="408" y="295" type="curve"/>
      <point x="339" y="295"/>
      <point x="292" y="249"/>
      <point x="292" y="176" type="curve"/>
      <point x="292" y="96"/>
      <point x="348" y="56"/>
      <point x="405" y="56" type="curve"/>
      <point x="463" y="56"/>
      <point x="522" y="96"/>
      <point x="522" y="176" type="curve"/>
      <point x="430" y="113" type="line"/>
      <point x="415" y="55"/>
      <point x="363" y="31"/>
      <point x="283" y="31" type="curve"/>
      <point x="231" y="31"/>
      <point x="168" y="43"/>
      <point x="114" y="68" type="curve"/>
      <point x="69" y="-37" type="line"/>
      <point x="136" y="-71"/>
      <point x="209" y="-86"/>
    </contour>
    <contour>
      <point x="168" y="81" type="curve"/>
      <point x="168" y="81" type="line"/>
      <point x="216" y="81"/>
      <point x="250" y="116"/>
      <point x="250" y="168" type="curve"/>
      <point x="250" y="216"/>
      <point x="220" y="255"/>
      <point x="169" y="255" type="curve"/>
      <point x="121" y="255"/>
      <point x="104" y="221"/>
      <point x="99" y="197" type="curve"/>
      <point x="189" y="145" type="line"/>
      <point x="186" y="158"/>
      <point x="185" y="171"/>
      <point x="185" y="181" type="curve"/>
      <point x="185" y="254"/>
      <point x="239" y="292"/>
      <point x="340" y="292" type="curve"/>
      <point x="349" y="292"/>
      <point x="341" y="292"/>
      <point x="358" y="291" type="curve"/>
      <point x="292" y="333" type="line"/>
      <point x="292" y="176" type="line"/>
      <point x="432" y="270" type="line"/>
      <point x="432" y="406" type="line"/>
      <point x="405" y="412"/>
      <point x="380" y="415"/>
      <point x="352" y="415" type="curve"/>
      <point x="210" y="415"/>
      <point x="72" y="339"/>
      <point x="72" y="199" type="curve"/>
      <point x="72" y="118"/>
      <point x="119" y="81"/>
    </contour>
    <contour>
      <point x="411" y="141" type="curve"/>
      <point x="411" y="141" type="line"/>
      <point x="397" y="141"/>
      <point x="388" y="153"/>
      <point x="388" y="175" type="curve"/>
      <point x="388" y="197"/>
      <point x="397" y="209"/>
      <point x="411" y="209" type="curve"/>
      <point x="425" y="209"/>
      <point x="434" y="197"/>
      <point x="434" y="175" type="curve"/>
      <point x="434" y="153"/>
      <point x="425" y="141"/>
    </contour>
  </outline>
</glyph>
<glyph name="nna-oriya.below" format="2">
  <note>
nnasubscriptorya
</note>
  <guideline x="182" y="144" angle="90"/>
  <anchor x="176" y="110" name="_bottom"/>
  <outline>
    <contour>
      <point x="6" y="-115" type="curve"/>
      <point x="6" y="-115" type="line"/>
      <point x="6" y="-195"/>
      <point x="60" y="-248"/>
      <point x="142" y="-248" type="curve"/>
      <point x="206" y="-248"/>
      <point x="249" y="-214"/>
      <point x="249" y="-164" type="curve"/>
      <point x="249" y="-116"/>
      <point x="205" y="-84"/>
      <point x="138" y="-84" type="curve"/>
      <point x="118" y="-84"/>
      <point x="97" y="-88"/>
      <point x="77" y="-96" type="curve"/>
      <point x="86" y="-149" type="line"/>
      <point x="100" y="-145"/>
      <point x="118" y="-142"/>
      <point x="133" y="-142" type="curve"/>
      <point x="156" y="-142"/>
      <point x="167" y="-151"/>
      <point x="167" y="-160" type="curve"/>
      <point x="167" y="-170"/>
      <point x="156" y="-176"/>
      <point x="143" y="-176" type="curve"/>
      <point x="124" y="-176"/>
      <point x="100" y="-163"/>
      <point x="100" y="-129" type="curve"/>
      <point x="100" y="-79"/>
      <point x="118" y="-62"/>
      <point x="148" y="-62" type="curve"/>
      <point x="160" y="-62"/>
      <point x="173" y="-63"/>
      <point x="188" y="-69" type="curve"/>
      <point x="215" y="-6" type="line"/>
      <point x="188" y="6"/>
      <point x="156" y="10"/>
      <point x="129" y="10" type="curve"/>
      <point x="55" y="10"/>
      <point x="6" y="-40"/>
    </contour>
    <contour>
      <point x="263" y="25" type="line"/>
      <point x="263" y="-244" type="line"/>
      <point x="357" y="-244" type="line"/>
      <point x="357" y="112" type="line"/>
      <point x="263" y="112" type="line"/>
      <point x="268" y="67" type="line"/>
    </contour>
    <contour>
      <point x="87" y="-23" type="curve"/>
      <point x="87" y="-23" type="line"/>
      <point x="180" y="-28" type="line"/>
      <point x="171" y="-16"/>
      <point x="166" y="-4"/>
      <point x="166" y="6" type="curve"/>
      <point x="166" y="21"/>
      <point x="176" y="36"/>
      <point x="198" y="36" type="curve"/>
      <point x="227" y="36"/>
      <point x="291" y="13"/>
      <point x="291" y="-63" type="curve"/>
      <point x="342" y="-63" type="line"/>
      <point x="342" y="73"/>
      <point x="237" y="116"/>
      <point x="175" y="116" type="curve"/>
      <point x="117" y="116"/>
      <point x="76" y="78"/>
      <point x="76" y="25" type="curve"/>
      <point x="76" y="11"/>
      <point x="79" y="-6"/>
    </contour>
  </outline>
</glyph>
<glyph name="overline-oriya.narrow" format="2">
  <anchor x="0" y="658" name="_top"/>
  <anchor x="147" y="658" name="_topAA"/>
  <outline>
    <contour>
      <point x="147" y="826" type="line"/>
      <point x="-148" y="826" type="line"/>
      <point x="-148" y="711" type="line"/>
      <point x="147" y="711" type="line"/>
    </contour>
  </outline>
</glyph>
<glyph name="overline-oriya.wide" format="2">
  <anchor x="0" y="658" name="_top"/>
  <outline>
    <contour>
      <point x="207" y="826" type="line"/>
      <point x="-208" y="826" type="line"/>
      <point x="-208" y="711" type="line"/>
      <point x="207" y="711" type="line"/>
    </contour>
  </outline>
</glyph>
<glyph name="partta-oriya.below" format="2">
  <advance width="484"/>
  <note>
tasubscriptorya
</note>
  <outline>
    <contour>
      <point x="48" y="-106" type="curve"/>
      <point x="3" y="-211" type="line"/>
      <point x="70" y="-245"/>
      <point x="143" y="-260"/>
      <point x="208" y="-260" type="curve"/>
      <point x="361" y="-260"/>
      <point x="464" y="-173"/>
      <point x="464" y="-30" type="curve"/>
      <point x="464" y="65"/>
      <point x="419" y="121"/>
      <point x="342" y="121" type="curve"/>
      <point x="273" y="121"/>
      <point x="226" y="75"/>
      <point x="226" y="2" type="curve"/>
      <point x="226" y="-78"/>
      <point x="282" y="-118"/>
      <point x="339" y="-118" type="curve"/>
      <point x="397" y="-118"/>
      <point x="456" y="-78"/>
      <point x="456" y="2" type="curve"/>
      <point x="364" y="-61" type="line"/>
      <point x="349" y="-119"/>
      <point x="297" y="-143"/>
      <point x="217" y="-143" type="curve"/>
      <point x="165" y="-143"/>
      <point x="102" y="-131"/>
    </contour>
    <contour>
      <point x="368" y="1" type="curve"/>
      <point x="368" y="1" type="line"/>
      <point x="368" y="-21"/>
      <point x="359" y="-33"/>
      <point x="345" y="-33" type="curve"/>
      <point x="331" y="-33"/>
      <point x="322" y="-21"/>
      <point x="322" y="1" type="curve"/>
      <point x="322" y="23"/>
      <point x="331" y="35"/>
      <point x="345" y="35" type="curve"/>
      <point x="359" y="35"/>
      <point x="368" y="23"/>
    </contour>
  </outline>
</glyph>
<glyph name="pata-oriya" format="2">
  <advance width="676"/>
  <note>
pataorya
</note>
  <guideline x="611" y="269" angle="90"/>
  <guideline x="670" y="270" angle="90"/>
  <anchor x="353" y="-199" name="bottom"/>
  <anchor x="499" y="-194" name="bottom_ra"/>
  <anchor x="413" y="-354" name="nukta"/>
  <anchor x="291" y="658" name="top"/>
  <anchor x="538" y="658" name="topright"/>
  <outline>
    <contour>
      <point x="140" y="195" type="curve"/>
      <point x="140" y="195" type="line"/>
      <point x="211" y="278" type="line"/>
      <point x="179" y="305"/>
      <point x="163" y="340"/>
      <point x="163" y="384" type="curve"/>
      <point x="163" y="474"/>
      <point x="230" y="520"/>
      <point x="308" y="520" type="curve"/>
      <point x="370" y="520"/>
      <point x="476" y="495"/>
      <point x="476" y="371" type="curve"/>
      <point x="589" y="370" type="line"/>
      <point x="589" y="569"/>
      <point x="438" y="666"/>
      <point x="291" y="666" type="curve"/>
      <point x="136" y="666"/>
      <point x="16" y="564"/>
      <point x="16" y="413" type="curve"/>
      <point x="16" y="324"/>
      <point x="58" y="240"/>
    </contour>
    <contour>
      <point x="314" y="-8" type="curve"/>
      <point x="314" y="-8" type="line"/>
      <point x="399" y="-8"/>
      <point x="496" y="40"/>
      <point x="554" y="130" type="curve"/>
      <point x="563" y="320" type="line"/>
      <point x="507" y="207"/>
      <point x="396" y="139"/>
      <point x="331" y="139" type="curve"/>
      <point x="296" y="139"/>
      <point x="279" y="160"/>
      <point x="279" y="186" type="curve"/>
      <point x="279" y="221"/>
      <point x="310" y="267"/>
      <point x="367" y="287" type="curve"/>
      <point x="306" y="425" type="line"/>
      <point x="183" y="385"/>
      <point x="128" y="284"/>
      <point x="128" y="185" type="curve"/>
      <point x="128" y="62"/>
      <point x="212" y="-8"/>
    </contour>
    <contour>
      <point x="464" y="498" type="line"/>
      <point x="464" y="116" type="line"/>
      <point x="611" y="116" type="line"/>
      <point x="611" y="658" type="line"/>
      <point x="464" y="658" type="line"/>
      <point x="472" y="574" type="line"/>
    </contour>
    <contour>
      <point x="414" y="-204" type="curve"/>
      <point x="414" y="-204" type="line"/>
      <point x="567" y="-204"/>
      <point x="670" y="-117"/>
      <point x="670" y="26" type="curve"/>
      <point x="670" y="121"/>
      <point x="625" y="177"/>
      <point x="548" y="177" type="curve"/>
      <point x="479" y="177"/>
      <point x="432" y="131"/>
      <point x="432" y="58" type="curve"/>
      <point x="432" y="-22"/>
      <point x="488" y="-62"/>
      <point x="545" y="-62" type="curve"/>
      <point x="603" y="-62"/>
      <point x="662" y="-22"/>
      <point x="662" y="58" type="curve"/>
      <point x="570" y="-5" type="line"/>
      <point x="555" y="-63"/>
      <point x="503" y="-87"/>
      <point x="423" y="-87" type="curve"/>
      <point x="371" y="-87"/>
      <point x="308" y="-75"/>
      <point x="254" y="-50" type="curve"/>
      <point x="209" y="-155" type="line"/>
      <point x="276" y="-189"/>
      <point x="349" y="-204"/>
    </contour>
    <contour>
      <point x="574" y="57" type="curve"/>
      <point x="574" y="57" type="line"/>
      <point x="574" y="35"/>
      <point x="565" y="23"/>
      <point x="551" y="23" type="curve"/>
      <point x="537" y="23"/>
      <point x="528" y="35"/>
      <point x="528" y="57" type="curve"/>
      <point x="528" y="79"/>
      <point x="537" y="91"/>
      <point x="551" y="91" type="curve"/>
      <point x="565" y="91"/>
      <point x="574" y="79"/>
    </contour>
  </outline>
</glyph>
<glyph name="plus.latn" format="2">
  <advance width="500"/>
  <outline>
    <contour>
      <point x="317" y="418" type="line"/>
      <point x="317" y="597" type="line"/>
      <point x="183" y="597" type="line"/>
      <point x="183" y="418" type="line"/>
      <point x="34" y="418" type="line"/>
      <point x="34" y="287" type="line"/>
      <point x="183" y="287" type="line"/>
      <point x="183" y="111" type="line"/>
      <point x="317" y="111" type="line"/>
      <point x="317" y="287" type="line"/>
      <point x="466" y="287" type="line"/>
      <point x="466" y="418" type="line"/>
    </contour>
  </outline>
</glyph>
<glyph name="rephaiLength-oriya.stem" format="2">
  <advance width="800"/>
  <note>
ailengthmarkrephorya
</note>
  <anchor x="445" y="658" name="_topright"/>
  <outline>
    <contour>
      <point x="483" y="818" type="line"/>
      <point x="539" y="725" type="line"/>
      <point x="704" y="906" type="line"/>
      <point x="626" y="977" type="line"/>
    </contour>
    <contour>
      <point x="371" y="658" type="curve"/>
      <point x="371" y="658" type="line"/>
      <point x="495" y="617" type="line"/>
      <point x="569" y="656"/>
      <point x="601" y="731"/>
      <point x="601" y="792" type="curve"/>
      <point x="601" y="871"/>
      <point x="548" y="941"/>
      <point x="455" y="941" type="curve"/>
      <point x="375" y="941"/>
      <point x="272" y="890"/>
      <point x="221" y="890" type="curve"/>
      <point x="195" y="890"/>
      <point x="175" y="903"/>
      <point x="157" y="932" type="curve"/>
      <point x="41" y="845" type="line"/>
      <point x="84" y="757"/>
      <point x="139" y="744"/>
      <point x="189" y="744" type="curve"/>
      <point x="288" y="744"/>
      <point x="361" y="795"/>
      <point x="409" y="795" type="curve"/>
      <point x="432" y="795"/>
      <point x="449" y="783"/>
      <point x="449" y="756" type="curve"/>
      <point x="449" y="724"/>
      <point x="425" y="696"/>
    </contour>
  </outline>
</glyph>
<glyph name="rephaiLength-oriya.umbrella" format="2">
  <advance width="800"/>
  <note>
ailengthmarkrephorya
</note>
  <anchor x="530" y="658" name="_topright"/>
  <outline>
    <contour>
      <point x="532" y="818" type="line"/>
      <point x="588" y="725" type="line"/>
      <point x="753" y="906" type="line"/>
      <point x="675" y="977" type="line"/>
    </contour>
    <contour>
      <point x="488" y="725" type="curve"/>
      <point x="488" y="725" type="line"/>
      <point x="625" y="699" type="line"/>
      <point x="642" y="731"/>
      <point x="650" y="763"/>
      <point x="650" y="793" type="curve"/>
      <point x="650" y="874"/>
      <point x="600" y="941"/>
      <point x="505" y="941" type="curve"/>
      <point x="423" y="941"/>
      <point x="321" y="890"/>
      <point x="270" y="890" type="curve"/>
      <point x="244" y="890"/>
      <point x="224" y="903"/>
      <point x="206" y="932" type="curve"/>
      <point x="90" y="845" type="line"/>
      <point x="133" y="757"/>
      <point x="188" y="744"/>
      <point x="238" y="744" type="curve"/>
      <point x="337" y="744"/>
      <point x="408" y="795"/>
      <point x="459" y="795" type="curve"/>
      <point x="489" y="795"/>
      <point x="498" y="778"/>
      <point x="498" y="760" type="curve"/>
      <point x="498" y="749"/>
      <point x="494" y="737"/>
    </contour>
  </outline>
</glyph>
<glyph name="sata-oriya" format="2">
  <advance width="647"/>
  <note>
sataorya
</note>
  <guideline x="581" y="371" angle="90"/>
  <guideline x="641" y="367" angle="90"/>
  <anchor x="458" y="-314" name="nukta"/>
  <anchor x="273" y="658" name="top"/>
  <anchor x="508" y="658" name="topright"/>
  <outline>
    <contour>
      <point x="135" y="205" type="curve"/>
      <point x="135" y="205" type="line"/>
      <point x="204" y="295" type="line"/>
      <point x="176" y="320"/>
      <point x="163" y="353"/>
      <point x="163" y="394" type="curve"/>
      <point x="163" y="477"/>
      <point x="230" y="520"/>
      <point x="298" y="520" type="curve"/>
      <point x="371" y="520"/>
      <point x="446" y="471"/>
      <point x="446" y="372" type="curve"/>
      <point x="559" y="371" type="line"/>
      <point x="559" y="570"/>
      <point x="414" y="666"/>
      <point x="273" y="666" type="curve"/>
      <point x="142" y="666"/>
      <point x="16" y="582"/>
      <point x="16" y="421" type="curve"/>
      <point x="16" y="341"/>
      <point x="55" y="250"/>
    </contour>
    <contour>
      <point x="78" y="73" type="line"/>
      <point x="450" y="-8" type="line"/>
      <point x="507" y="121" type="line"/>
      <point x="157" y="202" type="line"/>
      <point x="170" y="114" type="line"/>
      <point x="346" y="324" type="line"/>
      <point x="250" y="406" type="line"/>
      <point x="51" y="166" type="line"/>
    </contour>
    <contour>
      <point x="434" y="499" type="line"/>
      <point x="434" y="101" type="line"/>
      <point x="581" y="101" type="line"/>
      <point x="581" y="658" type="line"/>
      <point x="434" y="658" type="line"/>
      <point x="442" y="576" type="line"/>
    </contour>
    <contour>
      <point x="385" y="-204" type="curve"/>
      <point x="385" y="-204" type="line"/>
      <point x="538" y="-204"/>
      <point x="641" y="-117"/>
      <point x="641" y="26" type="curve"/>
      <point x="641" y="121"/>
      <point x="596" y="177"/>
      <point x="519" y="177" type="curve"/>
      <point x="450" y="177"/>
      <point x="403" y="131"/>
      <point x="403" y="58" type="curve"/>
      <point x="403" y="-22"/>
      <point x="459" y="-62"/>
      <point x="516" y="-62" type="curve"/>
      <point x="574" y="-62"/>
      <point x="633" y="-22"/>
      <point x="633" y="58" type="curve"/>
      <point x="541" y="-5" type="line"/>
      <point x="526" y="-63"/>
      <point x="474" y="-87"/>
      <point x="394" y="-87" type="curve"/>
      <point x="342" y="-87"/>
      <point x="279" y="-75"/>
      <point x="225" y="-50" type="curve"/>
      <point x="180" y="-155" type="line"/>
      <point x="247" y="-189"/>
      <point x="320" y="-204"/>
    </contour>
    <contour>
      <point x="545" y="57" type="curve"/>
      <point x="545" y="57" type="line"/>
      <point x="545" y="35"/>
      <point x="536" y="23"/>
      <point x="522" y="23" type="curve"/>
      <point x="508" y="23"/>
      <point x="499" y="35"/>
      <point x="499" y="57" type="curve"/>
      <point x="499" y="79"/>
      <point x="508" y="91"/>
      <point x="522" y="91" type="curve"/>
      <point x="536" y="91"/>
      <point x="545" y="79"/>
    </contour>
  </outline>
</glyph>
<glyph name="sava-oriya" format="2">
  <advance width="615"/>
  <anchor x="273" y="658" name="top"/>
  <anchor x="508" y="658" name="topright"/>
  <outline>
    <contour>
      <point x="135" y="205" type="curve"/>
      <point x="135" y="205" type="line"/>
      <point x="204" y="295" type="line"/>
      <point x="176" y="320"/>
      <point x="163" y="353"/>
      <point x="163" y="394" type="curve"/>
      <point x="163" y="477"/>
      <point x="230" y="520"/>
      <point x="298" y="520" type="curve"/>
      <point x="371" y="520"/>
      <point x="446" y="471"/>
      <point x="446" y="372" type="curve"/>
      <point x="559" y="371" type="line"/>
      <point x="559" y="570"/>
      <point x="414" y="666"/>
      <point x="273" y="666" type="curve"/>
      <point x="142" y="666"/>
      <point x="16" y="582"/>
      <point x="16" y="421" type="curve"/>
      <point x="16" y="341"/>
      <point x="55" y="250"/>
    </contour>
    <contour>
      <point x="380" y="-207" type="curve"/>
      <point x="380" y="-207" type="line"/>
      <point x="425" y="-207"/>
      <point x="466" y="-188"/>
      <point x="497" y="-146" type="curve"/>
      <point x="450" y="-68" type="line"/>
      <point x="441" y="-95"/>
      <point x="423" y="-110"/>
      <point x="404" y="-110" type="curve"/>
      <point x="382" y="-110"/>
      <point x="371" y="-90"/>
      <point x="371" y="-59" type="curve"/>
      <point x="371" y="-49"/>
      <point x="372" y="-38"/>
      <point x="374" y="-26" type="curve"/>
      <point x="260" y="-16" type="line"/>
      <point x="257" y="-33"/>
      <point x="255" y="-50"/>
      <point x="255" y="-67" type="curve"/>
      <point x="255" y="-144"/>
      <point x="297" y="-207"/>
    </contour>
    <contour>
      <point x="441" y="-151" type="line"/>
      <point x="434" y="-244" type="line"/>
      <point x="581" y="-244" type="line"/>
      <point x="581" y="658" type="line"/>
      <point x="434" y="658" type="line"/>
      <point x="442" y="576" type="line"/>
      <point x="434" y="499" type="line"/>
      <point x="434" y="72" type="line"/>
      <point x="498" y="123" type="line"/>
      <point x="166" y="200" type="line"/>
      <point x="188" y="134" type="line"/>
      <point x="346" y="324" type="line"/>
      <point x="250" y="406" type="line"/>
      <point x="51" y="166" type="line"/>
      <point x="78" y="73" type="line"/>
      <point x="499" y="-19" type="line"/>
      <point x="434" y="61" type="line"/>
      <point x="434" y="-131" type="line"/>
    </contour>
  </outline>
</glyph>
<glyph name="ta-oriya.below" format="2">
  <note>
tasubscriptorya
</note>
  <guideline x="318" y="156" angle="90"/>
  <anchor x="318" y="110" name="_bottom"/>
  <anchor x="265" y="-278" name="nukta"/>
  <outline>
    <contour>
      <point x="322" y="-115" type="curve"/>
      <point x="322" y="-115" type="line"/>
      <point x="300" y="-72" type="line"/>
      <point x="283" y="-74"/>
      <point x="267" y="-76"/>
      <point x="243" y="-76" type="curve"/>
      <point x="185" y="-76"/>
      <point x="129" y="-30"/>
      <point x="71" y="32" type="curve"/>
      <point x="6" y="-32" type="line"/>
      <point x="84" y="-113"/>
      <point x="154" y="-148"/>
      <point x="248" y="-148" type="curve"/>
      <point x="369" y="-148"/>
      <point x="424" y="-88"/>
      <point x="424" y="3" type="curve"/>
      <point x="424" y="74"/>
      <point x="385" y="116"/>
      <point x="318" y="116" type="curve"/>
      <point x="251" y="116"/>
      <point x="211" y="74"/>
      <point x="211" y="3" type="curve"/>
      <point x="211" y="-56"/>
      <point x="248" y="-115"/>
    </contour>
    <contour>
      <point x="318" y="-43" type="curve"/>
      <point x="318" y="-43" type="line"/>
      <point x="302" y="-43"/>
      <point x="293" y="-27"/>
      <point x="293" y="1" type="curve"/>
      <point x="293" y="28"/>
      <point x="302" y="44"/>
      <point x="318" y="44" type="curve"/>
      <point x="334" y="44"/>
      <point x="342" y="28"/>
      <point x="342" y="1" type="curve"/>
      <point x="342" y="-27"/>
      <point x="334" y="-43"/>
    </contour>
  </outline>
</glyph>
<glyph name="tha-oriya.below" format="2">
  <note>
thasubscriptorya
</note>
  <guideline x="321" y="158" angle="90"/>
  <anchor x="321" y="110" name="_bottom"/>
  <anchor x="297" y="-150" name="bottom"/>
  <anchor x="386" y="-138" name="bottom_ra"/>
  <anchor x="227" y="-278" name="nukta"/>
  <outline>
    <contour>
      <point x="345" y="-168" type="curve"/>
      <point x="345" y="-168" type="line"/>
      <point x="419" y="-168"/>
      <point x="449" y="-104"/>
      <point x="449" y="-41" type="curve"/>
      <point x="449" y="25"/>
      <point x="416" y="92"/>
      <point x="341" y="92" type="curve"/>
      <point x="223" y="92"/>
      <point x="185" y="-78"/>
      <point x="129" y="-78" type="curve"/>
      <point x="111" y="-78"/>
      <point x="106" y="-53"/>
      <point x="106" y="-39" type="curve"/>
      <point x="106" y="-20"/>
      <point x="114" y="2"/>
      <point x="130" y="2" type="curve"/>
      <point x="185" y="2"/>
      <point x="228" y="-168"/>
    </contour>
    <contour>
      <point x="111" y="-168" type="curve"/>
      <point x="111" y="-168" type="line"/>
      <point x="228" y="-168"/>
      <point x="271" y="2"/>
      <point x="326" y="2" type="curve"/>
      <point x="344" y="2"/>
      <point x="349" y="-24"/>
      <point x="349" y="-39" type="curve"/>
      <point x="349" y="-53"/>
      <point x="344" y="-78"/>
      <point x="326" y="-78" type="curve"/>
      <point x="270" y="-78"/>
      <point x="233" y="92"/>
      <point x="115" y="92" type="curve"/>
      <point x="40" y="92"/>
      <point x="6" y="25"/>
      <point x="6" y="-41" type="curve"/>
      <point x="6" y="-105"/>
      <point x="38" y="-168"/>
    </contour>
  </outline>
</glyph>
<glyph name="ttha-oriya.below" format="2">
  <note>
tthasubscriptorya
</note>
  <guideline x="153" y="162" angle="90"/>
  <anchor x="168" y="110" name="_bottom"/>
  <anchor x="152" y="-328" name="nukta"/>
  <outline>
    <contour>
      <point x="153" y="-208" type="curve"/>
      <point x="153" y="-208" type="line"/>
      <point x="252" y="-208"/>
      <point x="299" y="-141"/>
      <point x="299" y="-48" type="curve"/>
      <point x="299" y="49"/>
      <point x="252" y="116"/>
      <point x="153" y="116" type="curve"/>
      <point x="53" y="116"/>
      <point x="6" y="49"/>
      <point x="6" y="-48" type="curve"/>
      <point x="6" y="-141"/>
      <point x="53" y="-208"/>
    </contour>
    <contour>
      <point x="153" y="-124" type="curve"/>
      <point x="153" y="-124" type="line"/>
      <point x="122" y="-124"/>
      <point x="104" y="-95"/>
      <point x="104" y="-45" type="curve"/>
      <point x="104" y="3"/>
      <point x="122" y="32"/>
      <point x="153" y="32" type="curve"/>
      <point x="183" y="32"/>
      <point x="201" y="3"/>
      <point x="201" y="-45" type="curve"/>
      <point x="201" y="-95"/>
      <point x="183" y="-124"/>
    </contour>
  </outline>
</glyph>
<glyph name="va-oriya.base" format="2">
  <advance width="603"/>
  <anchor x="363" y="110" name="bottom"/>
  <anchor x="301" y="-74" name="nukta"/>
  <anchor x="300" y="658" name="top"/>
  <anchor x="437" y="658" name="topright"/>
  <outline>
    <contour>
      <point x="245" y="280" type="curve"/>
      <point x="245" y="280" type="line"/>
      <point x="245" y="257"/>
      <point x="255" y="243"/>
      <point x="271" y="243" type="curve"/>
      <point x="287" y="243"/>
      <point x="296" y="257"/>
      <point x="296" y="280" type="curve"/>
      <point x="296" y="303"/>
      <point x="287" y="317"/>
      <point x="271" y="317" type="curve"/>
      <point x="255" y="317"/>
      <point x="245" y="303"/>
    </contour>
    <contour>
      <point x="307" y="156" type="line"/>
      <point x="298" y="76" type="line"/>
      <point x="428" y="76" type="line"/>
      <point x="428" y="280" type="line"/>
    </contour>
    <contour>
      <point x="266" y="118" type="curve"/>
      <point x="266" y="118" type="line"/>
      <point x="362" y="118"/>
      <point x="428" y="185"/>
      <point x="428" y="280" type="curve"/>
      <point x="428" y="374"/>
      <point x="363" y="438"/>
      <point x="269" y="438" type="curve"/>
      <point x="176" y="438"/>
      <point x="113" y="373"/>
      <point x="113" y="277" type="curve"/>
      <point x="113" y="183"/>
      <point x="173" y="118"/>
    </contour>
    <contour>
      <point x="271" y="228" type="curve"/>
      <point x="271" y="228" type="line"/>
      <point x="244" y="228"/>
      <point x="228" y="247"/>
      <point x="228" y="278" type="curve"/>
      <point x="228" y="312"/>
      <point x="244" y="332"/>
      <point x="271" y="332" type="curve"/>
      <point x="297" y="332"/>
      <point x="313" y="312"/>
      <point x="313" y="278" type="curve"/>
      <point x="313" y="247"/>
      <point x="297" y="228"/>
    </contour>
    <contour>
      <point x="139" y="249" type="curve"/>
      <point x="139" y="249" type="line"/>
      <point x="198" y="334" type="line"/>
      <point x="174" y="356"/>
      <point x="161" y="386"/>
      <point x="161" y="419" type="curve"/>
      <point x="161" y="493"/>
      <point x="225" y="530"/>
      <point x="300" y="530" type="curve"/>
      <point x="374" y="530"/>
      <point x="440" y="493"/>
      <point x="440" y="417" type="curve"/>
      <point x="440" y="404"/>
      <point x="438" y="392"/>
      <point x="435" y="379" type="curve"/>
      <point x="574" y="340" type="line"/>
      <point x="582" y="365"/>
      <point x="587" y="393"/>
      <point x="587" y="422" type="curve"/>
      <point x="587" y="583"/>
      <point x="445" y="666"/>
      <point x="300" y="666" type="curve"/>
      <point x="155" y="666"/>
      <point x="16" y="583"/>
      <point x="16" y="435" type="curve"/>
      <point x="16" y="359"/>
      <point x="53" y="292"/>
    </contour>
  </outline>
</glyph>
<glyph name="va-oriya.below" format="2">
  <guideline x="119" y="155" angle="0"/>
  <guideline x="135" y="97" angle="0"/>
  <guideline x="132" y="206" angle="90"/>
  <anchor x="148" y="110" name="_bottom"/>
  <outline>
    <contour>
      <point x="6" y="2" type="curve"/>
      <point x="6" y="2" type="line"/>
      <point x="6" y="-83"/>
      <point x="49" y="-127"/>
      <point x="115" y="-127" type="curve"/>
      <point x="175" y="-127"/>
      <point x="216" y="-88"/>
      <point x="248" y="-31" type="curve"/>
      <point x="184" y="24" type="line"/>
      <point x="174" y="-11"/>
      <point x="154" y="-30"/>
      <point x="133" y="-30" type="curve"/>
      <point x="111" y="-30"/>
      <point x="100" y="-8"/>
      <point x="100" y="18" type="curve"/>
      <point x="100" y="36"/>
      <point x="105" y="70"/>
      <point x="115" y="102" type="curve"/>
      <point x="30" y="122" type="line"/>
      <point x="14" y="84"/>
      <point x="6" y="43"/>
    </contour>
    <contour>
      <point x="170" y="-74" type="line"/>
      <point x="163" y="-164" type="line"/>
      <point x="257" y="-164" type="line"/>
      <point x="257" y="112" type="line"/>
      <point x="163" y="112" type="line"/>
      <point x="163" y="-65" type="line"/>
    </contour>
  </outline>
</glyph>
<glyph name="va-oriya.kui" format="2">
  <advance width="606"/>
  <anchor x="298" y="0" name="bottom"/>
  <anchor x="600" y="0" name="bottom_ra"/>
  <anchor x="308" y="658" name="top"/>
  <anchor x="460" y="658" name="topright"/>
  <outline>
    <component base="ba-oriya"/>
    <contour>
      <point x="299" y="423" type="curve"/>
      <point x="299" y="423" type="line"/>
      <point x="317" y="423"/>
      <point x="327" y="440"/>
      <point x="327" y="463" type="curve"/>
      <point x="327" y="485"/>
      <point x="317" y="502"/>
      <point x="299" y="502" type="curve"/>
      <point x="283" y="502"/>
      <point x="272" y="485"/>
      <point x="272" y="463" type="curve"/>
      <point x="272" y="440"/>
      <point x="283" y="423"/>
    </contour>
  </outline>
</glyph>
<glyph name="vara-oriya.kui" format="2">
  <advance width="626"/>
  <anchor x="308" y="658" name="top"/>
  <anchor x="460" y="658" name="topright"/>
  <outline>
    <component base="bara-oriya"/>
    <contour>
      <point x="295" y="422" type="curve"/>
      <point x="295" y="422" type="line"/>
      <point x="313" y="422"/>
      <point x="323" y="439"/>
      <point x="323" y="462" type="curve"/>
      <point x="323" y="484"/>
      <point x="313" y="501"/>
      <point x="295" y="501" type="curve"/>
      <point x="279" y="501"/>
      <point x="268" y="484"/>
      <point x="268" y="462" type="curve"/>
      <point x="268" y="439"/>
      <point x="279" y="422"/>
    </contour>
  </outline>
</glyph>
